<?xml version="1.0" encoding="utf-8" standalone="no"?>
<!DOCTYPE svg PUBLIC "-//W3C//DTD SVG 1.1//EN"
  "http://www.w3.org/Graphics/SVG/1.1/DTD/svg11.dtd">
<!-- Created with matplotlib (http://matplotlib.org/) -->
<svg height="521pt" version="1.1" viewBox="0 0 392 521" width="392pt" xmlns="http://www.w3.org/2000/svg" xmlns:xlink="http://www.w3.org/1999/xlink">
 <defs>
  <style type="text/css">
*{stroke-linecap:butt;stroke-linejoin:round;}
  </style>
 </defs>
 <g id="figure_1">
  <g id="patch_1">
   <path d="M 0 521.28 
L 392.4 521.28 
L 392.4 0 
L 0 0 
z
" style="fill:#ffffff;"/>
  </g>
  <g id="axes_1">
   <g id="LineCollection_1">
    <path clip-path="url(#p1e959cf5fa)" d="M 228.281966 213.61562 
L 315.774605 224.315754 
" style="fill:none;stroke:#26ad81;stroke-width:3.267466;"/>
    <path clip-path="url(#p1e959cf5fa)" d="M 315.774605 224.315754 
L 301.642713 96.380751 
" style="fill:none;stroke:#27ad81;stroke-width:2.280294;"/>
    <path clip-path="url(#p1e959cf5fa)" d="M 301.642713 96.380751 
L 99.712173 97.191675 
" style="fill:none;stroke:#29af7f;stroke-width:1.460515;"/>
    <path clip-path="url(#p1e959cf5fa)" d="M 99.712173 97.191675 
L 87.496959 224.859386 
" style="fill:none;stroke:#2cb17e;stroke-width:0.947137;"/>
    <path clip-path="url(#p1e959cf5fa)" d="M 87.496959 224.859386 
L 174.161859 213.089074 
" style="fill:none;stroke:#2eb37c;stroke-width:0.827213;"/>
    <path clip-path="url(#p1e959cf5fa)" d="M 174.161859 213.089074 
L 85.861696 203.469671 
" style="fill:none;stroke:#31b57b;stroke-width:1.121078;"/>
    <path clip-path="url(#p1e959cf5fa)" d="M 85.861696 203.469671 
L 101.917094 331.652978 
" style="fill:none;stroke:#34b679;stroke-width:1.778902;"/>
    <path clip-path="url(#p1e959cf5fa)" d="M 101.917094 331.652978 
L 303.821096 329.220342 
" style="fill:none;stroke:#35b779;stroke-width:2.689139;"/>
    <path clip-path="url(#p1e959cf5fa)" d="M 303.821096 329.220342 
L 314.126791 201.838832 
" style="fill:none;stroke:#38b977;stroke-width:3.697442;"/>
    <path clip-path="url(#p1e959cf5fa)" d="M 314.126791 201.838832 
L 228.309643 214.668552 
" style="fill:none;stroke:#3bbb75;stroke-width:4.632835;"/>
    <path clip-path="url(#p1e959cf5fa)" d="M 228.309643 214.668552 
L 317.396915 223.196885 
" style="fill:none;stroke:#3fbc73;stroke-width:5.336705;"/>
    <path clip-path="url(#p1e959cf5fa)" d="M 317.396915 223.196885 
L 299.411524 94.784338 
" style="fill:none;stroke:#42be71;stroke-width:5.689698;"/>
    <path clip-path="url(#p1e959cf5fa)" d="M 299.411524 94.784338 
L 97.560592 98.83828 
" style="fill:none;stroke:#46c06f;stroke-width:5.631958;"/>
    <path clip-path="url(#p1e959cf5fa)" d="M 97.560592 98.83828 
L 89.156921 225.914767 
" style="fill:none;stroke:#48c16e;stroke-width:5.173276;"/>
    <path clip-path="url(#p1e959cf5fa)" d="M 89.156921 225.914767 
L 174.106511 212.036618 
" style="fill:none;stroke:#4cc26c;stroke-width:4.39143;"/>
    <path clip-path="url(#p1e959cf5fa)" d="M 174.106511 212.036618 
L 84.252738 204.609475 
" style="fill:none;stroke:#50c46a;stroke-width:3.418995;"/>
    <path clip-path="url(#p1e959cf5fa)" d="M 84.252738 204.609475 
L 104.174274 333.232124 
" style="fill:none;stroke:#54c568;stroke-width:2.420866;"/>
    <path clip-path="url(#p1e959cf5fa)" d="M 104.174274 333.232124 
L 305.945613 327.557553 
" style="fill:none;stroke:#58c765;stroke-width:1.566293;"/>
    <path clip-path="url(#p1e959cf5fa)" d="M 305.945613 327.557553 
L 312.455086 200.804826 
" style="fill:none;stroke:#5ac864;stroke-width:1.000185;"/>
    <path clip-path="url(#p1e959cf5fa)" d="M 312.455086 200.804826 
L 228.392651 215.720212 
" style="fill:none;stroke:#5ec962;stroke-width:0.818536;"/>
    <path clip-path="url(#p1e959cf5fa)" d="M 228.392651 215.720212 
L 318.992124 222.036265 
" style="fill:none;stroke:#63cb5f;stroke-width:1.052147;"/>
    <path clip-path="url(#p1e959cf5fa)" d="M 318.992124 222.036265 
L 297.128631 93.222724 
" style="fill:none;stroke:#67cc5c;stroke-width:1.661405;"/>
    <path clip-path="url(#p1e959cf5fa)" d="M 297.128631 93.222724 
L 95.463393 100.516977 
" style="fill:none;stroke:#6ccd5a;stroke-width:2.543001;"/>
    <path clip-path="url(#p1e959cf5fa)" d="M 95.463393 100.516977 
L 90.839962 226.927297 
" style="fill:none;stroke:#70cf57;stroke-width:3.547442;"/>
    <path clip-path="url(#p1e959cf5fa)" d="M 90.839962 226.927297 
L 173.995862 210.986072 
" style="fill:none;stroke:#73d056;stroke-width:4.504409;"/>
    <path clip-path="url(#p1e959cf5fa)" d="M 173.995862 210.986072 
L 82.671674 205.790785 
" style="fill:none;stroke:#77d153;stroke-width:5.25163;"/>
    <path clip-path="url(#p1e959cf5fa)" d="M 82.671674 205.790785 
L 106.482597 334.775946 
" style="fill:none;stroke:#7cd250;stroke-width:5.6624;"/>
    <path clip-path="url(#p1e959cf5fa)" d="M 106.482597 334.775946 
L 308.015243 325.863227 
" style="fill:none;stroke:#81d34d;stroke-width:5.667065;"/>
    <path clip-path="url(#p1e959cf5fa)" d="M 308.015243 325.863227 
L 310.761117 199.813865 
" style="fill:none;stroke:#86d549;stroke-width:5.264836;"/>
    <path clip-path="url(#p1e959cf5fa)" d="M 310.761117 199.813865 
L 228.530918 216.769327 
" style="fill:none;stroke:#8bd646;stroke-width:4.523916;"/>
    <path clip-path="url(#p1e959cf5fa)" d="M 228.530918 216.769327 
L 320.55865 220.834395 
" style="fill:none;stroke:#8ed645;stroke-width:3.569943;"/>
    <path clip-path="url(#p1e959cf5fa)" d="M 320.55865 220.834395 
L 294.795168 91.696951 
" style="fill:none;stroke:#93d741;stroke-width:2.564679;"/>
    <path clip-path="url(#p1e959cf5fa)" d="M 294.795168 91.696951 
L 93.421578 102.226648 
" style="fill:none;stroke:#98d83e;stroke-width:1.678586;"/>
    <path clip-path="url(#p1e959cf5fa)" d="M 93.421578 102.226648 
L 92.544449 227.896599 
" style="fill:none;stroke:#9dd93b;stroke-width:1.061916;"/>
    <path clip-path="url(#p1e959cf5fa)" d="M 92.544449 227.896599 
L 173.830006 209.938707 
" style="fill:none;stroke:#a2da37;stroke-width:0.819237;"/>
    <path clip-path="url(#p1e959cf5fa)" d="M 173.830006 209.938707 
L 81.120078 207.013084 
" style="fill:none;stroke:#a8db34;stroke-width:0.991699;"/>
    <path clip-path="url(#p1e959cf5fa)" d="M 81.120078 207.013084 
L 108.840905 336.283413 
" style="fill:none;stroke:#aadc32;stroke-width:1.550059;"/>
    <path clip-path="url(#p1e959cf5fa)" d="M 108.840905 336.283413 
L 310.029004 324.138496 
" style="fill:none;stroke:#b0dd2f;stroke-width:2.399637;"/>
    <path clip-path="url(#p1e959cf5fa)" d="M 310.029004 324.138496 
L 309.046524 198.866309 
" style="fill:none;stroke:#b5de2b;stroke-width:3.396371;"/>
    <path clip-path="url(#p1e959cf5fa)" d="M 309.046524 198.866309 
L 228.724328 217.814626 
" style="fill:none;stroke:#bade28;stroke-width:4.371246;"/>
    <path clip-path="url(#p1e959cf5fa)" d="M 228.724328 217.814626 
L 322.094929 219.591806 
" style="fill:none;stroke:#c0df25;stroke-width:5.158956;"/>
    <path clip-path="url(#p1e959cf5fa)" d="M 322.094929 219.591806 
L 292.412312 90.208041 
" style="fill:none;stroke:#c5e021;stroke-width:5.62593;"/>
    <path clip-path="url(#p1e959cf5fa)" d="M 292.412312 90.208041 
L 91.436107 103.966152 
" style="fill:none;stroke:#c8e020;stroke-width:5.692983;"/>
    <path clip-path="url(#p1e959cf5fa)" d="M 91.436107 103.966152 
L 94.268736 228.822327 
" style="fill:none;stroke:#cde11d;stroke-width:5.348747;"/>
    <path clip-path="url(#p1e959cf5fa)" d="M 94.268736 228.822327 
L 173.609084 208.89579 
" style="fill:none;stroke:#d2e21b;stroke-width:4.651591;"/>
    <path clip-path="url(#p1e959cf5fa)" d="M 173.609084 208.89579 
L 79.599502 208.275821 
" style="fill:none;stroke:#d8e219;stroke-width:3.719733;"/>
    <path clip-path="url(#p1e959cf5fa)" d="M 79.599502 208.275821 
L 111.248008 337.753517 
" style="fill:none;stroke:#dde318;stroke-width:2.711184;"/>
    <path clip-path="url(#p1e959cf5fa)" d="M 111.248008 337.753517 
L 311.985955 322.384508 
" style="fill:none;stroke:#e2e418;stroke-width:1.796963;"/>
    <path clip-path="url(#p1e959cf5fa)" d="M 311.985955 322.384508 
L 307.312958 197.962486 
" style="fill:none;stroke:#e5e419;stroke-width:1.132093;"/>
    <path clip-path="url(#p1e959cf5fa)" d="M 307.312958 197.962486 
L 228.972715 218.854843 
" style="fill:none;stroke:#eae51a;stroke-width:0.829314;"/>
    <path clip-path="url(#p1e959cf5fa)" d="M 228.972715 218.854843 
L 323.599417 218.309065 
" style="fill:none;stroke:#efe51c;stroke-width:0.939967;"/>
    <path clip-path="url(#p1e959cf5fa)" d="M 323.599417 218.309065 
L 289.98127 88.756989 
" style="fill:none;stroke:#f4e61e;stroke-width:1.445291;"/>
    <path clip-path="url(#p1e959cf5fa)" d="M 289.98127 88.756989 
L 89.507902 105.734332 
" style="fill:none;stroke:#f8e621;stroke-width:2.259597;"/>
    <path clip-path="url(#p1e959cf5fa)" d="M 89.507902 105.734332 
L 96.011167 229.704173 
" style="fill:none;stroke:#fbe723;stroke-width:3.244805;"/>
    <path clip-path="url(#p1e959cf5fa)" d="M 96.011167 229.704173 
L 173.333283 207.858588 
" style="fill:none;stroke:#440154;stroke-width:4.233857;"/>
    <path clip-path="url(#p1e959cf5fa)" d="M 173.333283 207.858588 
L 78.111482 209.578415 
" style="fill:none;stroke:#450457;stroke-width:5.059039;"/>
    <path clip-path="url(#p1e959cf5fa)" d="M 78.111482 209.578415 
L 113.702677 339.185275 
" style="fill:none;stroke:#46075a;stroke-width:5.580428;"/>
    <path clip-path="url(#p1e959cf5fa)" d="M 113.702677 339.185275 
L 313.885195 320.60243 
" style="fill:none;stroke:#460a5d;stroke-width:5.709612;"/>
    <path clip-path="url(#p1e959cf5fa)" d="M 313.885195 320.60243 
L 305.562079 197.102687 
" style="fill:none;stroke:#470d60;stroke-width:5.424687;"/>
    <path clip-path="url(#p1e959cf5fa)" d="M 305.562079 197.102687 
L 229.27587 219.888715 
" style="fill:none;stroke:#470e61;stroke-width:4.773966;"/>
    <path clip-path="url(#p1e959cf5fa)" d="M 229.27587 219.888715 
L 325.07059 216.986772 
" style="fill:none;stroke:#471164;stroke-width:3.86779;"/>
    <path clip-path="url(#p1e959cf5fa)" d="M 325.07059 216.986772 
L 287.503289 87.344766 
" style="fill:none;stroke:#481467;stroke-width:2.859819;"/>
    <path clip-path="url(#p1e959cf5fa)" d="M 287.503289 87.344766 
L 87.63784 107.530012 
" style="fill:none;stroke:#481769;stroke-width:1.920972;"/>
    <path clip-path="url(#p1e959cf5fa)" d="M 87.63784 107.530012 
L 97.770075 230.541862 
" style="fill:none;stroke:#481a6c;stroke-width:1.210447;"/>
    <path clip-path="url(#p1e959cf5fa)" d="M 97.770075 230.541862 
L 173.00284 206.828361 
" style="fill:none;stroke:#481c6e;stroke-width:0.848727;"/>
    <path clip-path="url(#p1e959cf5fa)" d="M 173.00284 206.828361 
L 76.657533 210.92025 
" style="fill:none;stroke:#481d6f;stroke-width:0.897149;"/>
    <path clip-path="url(#p1e959cf5fa)" d="M 76.657533 210.92025 
L 116.203651 340.577727 
" style="fill:none;stroke:#482071;stroke-width:1.3475;"/>
    <path clip-path="url(#p1e959cf5fa)" d="M 116.203651 340.577727 
L 315.725868 318.793447 
" style="fill:none;stroke:#482374;stroke-width:2.123416;"/>
    <path clip-path="url(#p1e959cf5fa)" d="M 315.725868 318.793447 
L 303.795559 196.287167 
" style="fill:none;stroke:#482576;stroke-width:3.093327;"/>
    <path clip-path="url(#p1e959cf5fa)" d="M 303.795559 196.287167 
L 229.633533 220.914983 
" style="fill:none;stroke:#482878;stroke-width:4.092766;"/>
    <path clip-path="url(#p1e959cf5fa)" d="M 229.633533 220.914983 
L 326.506943 215.625558 
" style="fill:none;stroke:#472a7a;stroke-width:4.952261;"/>
    <path clip-path="url(#p1e959cf5fa)" d="M 326.506943 215.625558 
L 284.979647 85.972317 
" style="fill:none;stroke:#472c7a;stroke-width:5.526068;"/>
    <path clip-path="url(#p1e959cf5fa)" d="M 284.979647 85.972317 
L 85.826759 109.351999 
" style="fill:none;stroke:#472e7c;stroke-width:5.716889;"/>
    <path clip-path="url(#p1e959cf5fa)" d="M 85.826759 109.351999 
L 99.543788 231.335157 
" style="fill:none;stroke:#46307e;stroke-width:5.492366;"/>
    <path clip-path="url(#p1e959cf5fa)" d="M 99.543788 231.335157 
L 172.618033 205.806365 
" style="fill:none;stroke:#46337f;stroke-width:4.890571;"/>
    <path clip-path="url(#p1e959cf5fa)" d="M 172.618033 205.806365 
L 75.239146 212.300678 
" style="fill:none;stroke:#453581;stroke-width:4.013549;"/>
    <path clip-path="url(#p1e959cf5fa)" d="M 75.239146 212.300678 
L 118.749632 341.929943 
" style="fill:none;stroke:#453882;stroke-width:3.010015;"/>
    <path clip-path="url(#p1e959cf5fa)" d="M 118.749632 341.929943 
L 317.507159 316.95876 
" style="fill:none;stroke:#443983;stroke-width:2.050137;"/>
    <path clip-path="url(#p1e959cf5fa)" d="M 317.507159 316.95876 
L 302.015075 195.516146 
" style="fill:none;stroke:#443b84;stroke-width:1.296679;"/>
    <path clip-path="url(#p1e959cf5fa)" d="M 302.015075 195.516146 
L 230.0454 221.932396 
" style="fill:none;stroke:#433e85;stroke-width:0.877404;"/>
    <path clip-path="url(#p1e959cf5fa)" d="M 230.0454 221.932396 
L 327.906996 214.226086 
" style="fill:none;stroke:#424086;stroke-width:0.863407;"/>
    <path clip-path="url(#p1e959cf5fa)" d="M 327.906996 214.226086 
L 282.411658 84.640561 
" style="fill:none;stroke:#414287;stroke-width:1.257062;"/>
    <path clip-path="url(#p1e959cf5fa)" d="M 282.411658 84.640561 
L 84.075452 111.199081 
" style="fill:none;stroke:#404588;stroke-width:1.991617;"/>
    <path clip-path="url(#p1e959cf5fa)" d="M 84.075452 111.199081 
L 101.330623 232.083856 
" style="fill:none;stroke:#404688;stroke-width:2.942515;"/>
    <path clip-path="url(#p1e959cf5fa)" d="M 101.330623 232.083856 
L 172.179192 204.793847 
" style="fill:none;stroke:#3f4889;stroke-width:3.948515;"/>
    <path clip-path="url(#p1e959cf5fa)" d="M 172.179192 204.793847 
L 73.857791 213.719019 
" style="fill:none;stroke:#3e4a89;stroke-width:4.839031;"/>
    <path clip-path="url(#p1e959cf5fa)" d="M 73.857791 213.719019 
L 121.339294 343.241017 
" style="fill:none;stroke:#3d4d8a;stroke-width:5.463059;"/>
    <path clip-path="url(#p1e959cf5fa)" d="M 121.339294 343.241017 
L 319.228294 315.099587 
" style="fill:none;stroke:#3c4f8a;stroke-width:5.714786;"/>
    <path clip-path="url(#p1e959cf5fa)" d="M 319.228294 315.099587 
L 300.22231 194.78981 
" style="fill:none;stroke:#3c508b;stroke-width:5.551524;"/>
    <path clip-path="url(#p1e959cf5fa)" d="M 300.22231 194.78981 
L 230.511122 222.939707 
" style="fill:none;stroke:#3b528b;stroke-width:5.00096;"/>
    <path clip-path="url(#p1e959cf5fa)" d="M 230.511122 222.939707 
L 329.269292 212.789052 
" style="fill:none;stroke:#3a548c;stroke-width:4.15645;"/>
    <path clip-path="url(#p1e959cf5fa)" d="M 329.269292 212.789052 
L 279.800665 83.350389 
" style="fill:none;stroke:#39568c;stroke-width:3.161198;"/>
    <path clip-path="url(#p1e959cf5fa)" d="M 279.800665 83.350389 
L 82.38467 113.070036 
" style="fill:none;stroke:#38598c;stroke-width:2.183965;"/>
    <path clip-path="url(#p1e959cf5fa)" d="M 82.38467 113.070036 
L 103.128894 232.787793 
" style="fill:none;stroke:#375b8d;stroke-width:1.390459;"/>
    <path clip-path="url(#p1e959cf5fa)" d="M 103.128894 232.787793 
L 171.686689 203.792051 
" style="fill:none;stroke:#365c8d;stroke-width:0.915234;"/>
    <path clip-path="url(#p1e959cf5fa)" d="M 171.686689 203.792051 
L 72.514913 215.174564 
" style="fill:none;stroke:#355e8d;stroke-width:0.838872;"/>
    <path clip-path="url(#p1e959cf5fa)" d="M 72.514913 215.174564 
L 123.971274 344.51007 
" style="fill:none;stroke:#34608d;stroke-width:1.174323;"/>
    <path clip-path="url(#p1e959cf5fa)" d="M 123.971274 344.51007 
L 320.888548 313.217161 
" style="fill:none;stroke:#33628d;stroke-width:1.864703;"/>
    <path clip-path="url(#p1e959cf5fa)" d="M 320.888548 313.217161 
L 298.418955 194.108306 
" style="fill:none;stroke:#32648e;stroke-width:2.792948;"/>
    <path clip-path="url(#p1e959cf5fa)" d="M 298.418955 194.108306 
L 231.030302 223.935681 
" style="fill:none;stroke:#31668e;stroke-width:3.801656;"/>
    <path clip-path="url(#p1e959cf5fa)" d="M 231.030302 223.935681 
L 330.592398 211.315182 
" style="fill:none;stroke:#31678e;stroke-width:4.719782;"/>
    <path clip-path="url(#p1e959cf5fa)" d="M 330.592398 211.315182 
L 277.148046 82.102666 
" style="fill:none;stroke:#30698e;stroke-width:5.391642;"/>
    <path clip-path="url(#p1e959cf5fa)" d="M 277.148046 82.102666 
L 80.755117 114.963622 
" style="fill:none;stroke:#2f6b8e;stroke-width:5.70331;"/>
    <path clip-path="url(#p1e959cf5fa)" d="M 80.755117 114.963622 
L 104.936911 233.446837 
" style="fill:none;stroke:#2e6d8e;stroke-width:5.601936;"/>
    <path clip-path="url(#p1e959cf5fa)" d="M 104.936911 233.446837 
L 171.140943 202.802208 
" style="fill:none;stroke:#2e6f8e;stroke-width:5.104711;"/>
    <path clip-path="url(#p1e959cf5fa)" d="M 171.140943 202.802208 
L 71.211931 216.666571 
" style="fill:none;stroke:#2d718e;stroke-width:4.295948;"/>
    <path clip-path="url(#p1e959cf5fa)" d="M 71.211931 216.666571 
L 126.644181 345.736254 
" style="fill:none;stroke:#2c718e;stroke-width:3.312787;"/>
    <path clip-path="url(#p1e959cf5fa)" d="M 126.644181 345.736254 
L 322.487234 311.312728 
" style="fill:none;stroke:#2c738e;stroke-width:2.321941;"/>
    <path clip-path="url(#p1e959cf5fa)" d="M 322.487234 311.312728 
L 296.606701 193.471746 
" style="fill:none;stroke:#2b758e;stroke-width:1.491426;"/>
    <path clip-path="url(#p1e959cf5fa)" d="M 296.606701 193.471746 
L 231.602497 224.919088 
" style="fill:none;stroke:#2a778e;stroke-width:0.962071;"/>
    <path clip-path="url(#p1e959cf5fa)" d="M 231.602497 224.919088 
L 331.874907 209.805232 
" style="fill:none;stroke:#29798e;stroke-width:0.823638;"/>
    <path clip-path="url(#p1e959cf5fa)" d="M 331.874907 209.805232 
L 274.455206 80.898227 
" style="fill:none;stroke:#297b8e;stroke-width:1.099599;"/>
    <path clip-path="url(#p1e959cf5fa)" d="M 274.455206 80.898227 
L 79.187457 116.878587 
" style="fill:none;stroke:#287c8e;stroke-width:1.743162;"/>
    <path clip-path="url(#p1e959cf5fa)" d="M 79.187457 116.878587 
L 106.752978 234.060894 
" style="fill:none;stroke:#277e8e;stroke-width:2.645198;"/>
    <path clip-path="url(#p1e959cf5fa)" d="M 106.752978 234.060894 
L 170.542419 201.825542 
" style="fill:none;stroke:#27808e;stroke-width:3.652751;"/>
    <path clip-path="url(#p1e959cf5fa)" d="M 170.542419 201.825542 
L 69.950239 218.194268 
" style="fill:none;stroke:#26828e;stroke-width:4.594972;"/>
    <path clip-path="url(#p1e959cf5fa)" d="M 69.950239 218.194268 
L 129.356594 346.918746 
" style="fill:none;stroke:#25838e;stroke-width:5.312091;"/>
    <path clip-path="url(#p1e959cf5fa)" d="M 129.356594 346.918746 
L 324.023714 309.387548 
" style="fill:none;stroke:#25858e;stroke-width:5.682506;"/>
    <path clip-path="url(#p1e959cf5fa)" d="M 324.023714 309.387548 
L 294.787244 192.880206 
" style="fill:none;stroke:#24868e;stroke-width:5.643408;"/>
    <path clip-path="url(#p1e959cf5fa)" d="M 294.787244 192.880206 
L 232.227222 225.888709 
" style="fill:none;stroke:#23888e;stroke-width:5.201426;"/>
    <path clip-path="url(#p1e959cf5fa)" d="M 232.227222 225.888709 
L 333.115439 208.259988 
" style="fill:none;stroke:#238a8d;stroke-width:4.431506;"/>
    <path clip-path="url(#p1e959cf5fa)" d="M 333.115439 208.259988 
L 271.723582 79.737879 
" style="fill:none;stroke:#228c8d;stroke-width:3.464202;"/>
    <path clip-path="url(#p1e959cf5fa)" d="M 271.723582 79.737879 
L 77.682305 118.813664 
" style="fill:none;stroke:#218e8d;stroke-width:2.463539;"/>
    <path clip-path="url(#p1e959cf5fa)" d="M 77.682305 118.813664 
L 108.5754 234.629906 
" style="fill:none;stroke:#218f8d;stroke-width:1.599195;"/>
    <path clip-path="url(#p1e959cf5fa)" d="M 108.5754 234.629906 
L 169.891627 200.863267 
" style="fill:none;stroke:#21918c;stroke-width:1.017737;"/>
    <path clip-path="url(#p1e959cf5fa)" d="M 169.891627 200.863267 
L 68.731204 219.756855 
" style="fill:none;stroke:#20928c;stroke-width:0.817762;"/>
    <path clip-path="url(#p1e959cf5fa)" d="M 68.731204 219.756855 
L 132.107062 348.056756 
" style="fill:none;stroke:#1f948c;stroke-width:1.033178;"/>
    <path clip-path="url(#p1e959cf5fa)" d="M 132.107062 348.056756 
L 325.497395 307.442892 
" style="fill:none;stroke:#1f968b;stroke-width:1.627458;"/>
    <path clip-path="url(#p1e959cf5fa)" d="M 325.497395 307.442892 
L 292.962281 192.333727 
" style="fill:none;stroke:#1f988b;stroke-width:2.499831;"/>
    <path clip-path="url(#p1e959cf5fa)" d="M 292.962281 192.333727 
L 232.903943 226.843338 
" style="fill:none;stroke:#1f998a;stroke-width:3.502371;"/>
    <path clip-path="url(#p1e959cf5fa)" d="M 232.903943 226.843338 
L 334.312643 206.680265 
" style="fill:none;stroke:#1e9b8a;stroke-width:4.465078;"/>
    <path clip-path="url(#p1e959cf5fa)" d="M 334.312643 206.680265 
L 268.954638 78.622398 
" style="fill:none;stroke:#1e9d89;stroke-width:5.224709;"/>
    <path clip-path="url(#p1e959cf5fa)" d="M 268.954638 78.622398 
L 76.240233 120.767578 
" style="fill:none;stroke:#1f9f88;stroke-width:5.652454;"/>
    <path clip-path="url(#p1e959cf5fa)" d="M 76.240233 120.767578 
L 110.402481 235.153851 
" style="fill:none;stroke:#1fa188;stroke-width:5.675781;"/>
    <path clip-path="url(#p1e959cf5fa)" d="M 110.402481 235.153851 
L 169.189121 199.916584 
" style="fill:none;stroke:#1fa287;stroke-width:5.290735;"/>
    <path clip-path="url(#p1e959cf5fa)" d="M 169.189121 199.916584 
L 67.556163 221.353501 
" style="fill:none;stroke:#20a386;stroke-width:4.562607;"/>
    <path clip-path="url(#p1e959cf5fa)" d="M 67.556163 221.353501 
L 134.894109 349.149521 
" style="fill:none;stroke:#21a585;stroke-width:3.614865;"/>
    <path clip-path="url(#p1e959cf5fa)" d="M 134.894109 349.149521 
L 326.907727 305.480044 
" style="fill:none;stroke:#22a785;stroke-width:2.608215;"/>
    <path clip-path="url(#p1e959cf5fa)" d="M 326.907727 305.480044 
L 291.133506 191.832313 
" style="fill:none;stroke:#23a983;stroke-width:1.713353;"/>
    <path clip-path="url(#p1e959cf5fa)" d="M 291.133506 191.832313 
L 233.632084 227.781777 
" style="fill:none;stroke:#25ab82;stroke-width:1.082019;"/>
    <path clip-path="url(#p1e959cf5fa)" d="M 233.632084 227.781777 
L 335.465195 205.066909 
" style="fill:none;stroke:#26ad81;stroke-width:0.821267;"/>
    <path clip-path="url(#p1e959cf5fa)" d="M 335.465195 205.066909 
L 266.149865 77.552532 
" style="fill:none;stroke:#26ad81;stroke-width:3.267466;"/>
    <path clip-path="url(#p1e959cf5fa)" d="M 266.149865 77.552532 
L 74.861767 122.739038 
" style="fill:none;stroke:#27ad81;stroke-width:2.280294;"/>
    <path clip-path="url(#p1e959cf5fa)" d="M 74.861767 122.739038 
L 112.232525 235.632743 
" style="fill:none;stroke:#29af7f;stroke-width:1.460515;"/>
    <path clip-path="url(#p1e959cf5fa)" d="M 112.232525 235.632743 
L 168.4355 198.986684 
" style="fill:none;stroke:#2cb17e;stroke-width:0.947137;"/>
    <path clip-path="url(#p1e959cf5fa)" d="M 168.4355 198.986684 
L 66.426423 222.983349 
" style="fill:none;stroke:#2eb37c;stroke-width:0.827213;"/>
    <path clip-path="url(#p1e959cf5fa)" d="M 66.426423 222.983349 
L 137.716228 350.19631 
" style="fill:none;stroke:#31b57b;stroke-width:1.121078;"/>
    <path clip-path="url(#p1e959cf5fa)" d="M 137.716228 350.19631 
L 328.254207 303.500296 
" style="fill:none;stroke:#34b679;stroke-width:1.778902;"/>
    <path clip-path="url(#p1e959cf5fa)" d="M 328.254207 303.500296 
L 289.302616 191.375931 
" style="fill:none;stroke:#35b779;stroke-width:2.689139;"/>
    <path clip-path="url(#p1e959cf5fa)" d="M 289.302616 191.375931 
L 234.411024 228.702844 
" style="fill:none;stroke:#38b977;stroke-width:3.697442;"/>
    <path clip-path="url(#p1e959cf5fa)" d="M 234.411024 228.702844 
L 336.571803 203.420792 
" style="fill:none;stroke:#3bbb75;stroke-width:4.632835;"/>
    <path clip-path="url(#p1e959cf5fa)" d="M 336.571803 203.420792 
L 263.310781 76.528995 
" style="fill:none;stroke:#3fbc73;stroke-width:5.336705;"/>
    <path clip-path="url(#p1e959cf5fa)" d="M 263.310781 76.528995 
L 73.547386 124.726748 
" style="fill:none;stroke:#42be71;stroke-width:5.689698;"/>
    <path clip-path="url(#p1e959cf5fa)" d="M 73.547386 124.726748 
L 114.06384 236.066633 
" style="fill:none;stroke:#46c06f;stroke-width:5.631958;"/>
    <path clip-path="url(#p1e959cf5fa)" d="M 114.06384 236.066633 
L 167.631407 198.074743 
" style="fill:none;stroke:#48c16e;stroke-width:5.173276;"/>
    <path clip-path="url(#p1e959cf5fa)" d="M 167.631407 198.074743 
L 65.343262 224.645511 
" style="fill:none;stroke:#4cc26c;stroke-width:4.39143;"/>
    <path clip-path="url(#p1e959cf5fa)" d="M 65.343262 224.645511 
L 140.571891 351.196423 
" style="fill:none;stroke:#50c46a;stroke-width:3.418995;"/>
    <path clip-path="url(#p1e959cf5fa)" d="M 140.571891 351.196423 
L 329.536381 301.50495 
" style="fill:none;stroke:#54c568;stroke-width:2.420866;"/>
    <path clip-path="url(#p1e959cf5fa)" d="M 329.536381 301.50495 
L 287.4713 190.964512 
" style="fill:none;stroke:#58c765;stroke-width:1.566293;"/>
    <path clip-path="url(#p1e959cf5fa)" d="M 287.4713 190.964512 
L 235.2401 229.605368 
" style="fill:none;stroke:#5ac864;stroke-width:1.000185;"/>
    <path clip-path="url(#p1e959cf5fa)" d="M 235.2401 229.605368 
L 337.631206 201.742813 
" style="fill:none;stroke:#5ec962;stroke-width:0.818536;"/>
    <path clip-path="url(#p1e959cf5fa)" d="M 337.631206 201.742813 
L 260.438929 75.552473 
" style="fill:none;stroke:#63cb5f;stroke-width:1.052147;"/>
    <path clip-path="url(#p1e959cf5fa)" d="M 260.438929 75.552473 
L 72.297522 126.729401 
" style="fill:none;stroke:#67cc5c;stroke-width:1.661405;"/>
    <path clip-path="url(#p1e959cf5fa)" d="M 72.297522 126.729401 
L 115.894734 236.455606 
" style="fill:none;stroke:#6ccd5a;stroke-width:2.543001;"/>
    <path clip-path="url(#p1e959cf5fa)" d="M 115.894734 236.455606 
L 166.777526 197.181923 
" style="fill:none;stroke:#70cf57;stroke-width:3.547442;"/>
    <path clip-path="url(#p1e959cf5fa)" d="M 166.777526 197.181923 
L 64.307926 226.339075 
" style="fill:none;stroke:#73d056;stroke-width:4.504409;"/>
    <path clip-path="url(#p1e959cf5fa)" d="M 64.307926 226.339075 
L 143.459542 352.149191 
" style="fill:none;stroke:#77d153;stroke-width:5.25163;"/>
    <path clip-path="url(#p1e959cf5fa)" d="M 143.459542 352.149191 
L 330.753838 299.495319 
" style="fill:none;stroke:#7cd250;stroke-width:5.6624;"/>
    <path clip-path="url(#p1e959cf5fa)" d="M 330.753838 299.495319 
L 285.641248 190.597953 
" style="fill:none;stroke:#81d34d;stroke-width:5.667065;"/>
    <path clip-path="url(#p1e959cf5fa)" d="M 285.641248 190.597953 
L 236.118603 230.488196 
" style="fill:none;stroke:#86d549;stroke-width:5.264836;"/>
    <path clip-path="url(#p1e959cf5fa)" d="M 236.118603 230.488196 
L 338.642173 200.0339 
" style="fill:none;stroke:#8bd646;stroke-width:4.523916;"/>
    <path clip-path="url(#p1e959cf5fa)" d="M 338.642173 200.0339 
L 257.535874 74.623618 
" style="fill:none;stroke:#8ed645;stroke-width:3.569943;"/>
    <path clip-path="url(#p1e959cf5fa)" d="M 257.535874 74.623618 
L 71.112563 128.745682 
" style="fill:none;stroke:#93d741;stroke-width:2.564679;"/>
    <path clip-path="url(#p1e959cf5fa)" d="M 71.112563 128.745682 
L 117.723524 236.799785 
" style="fill:none;stroke:#98d83e;stroke-width:1.678586;"/>
    <path clip-path="url(#p1e959cf5fa)" d="M 117.723524 236.799785 
L 165.874587 196.309373 
" style="fill:none;stroke:#9dd93b;stroke-width:1.061916;"/>
    <path clip-path="url(#p1e959cf5fa)" d="M 165.874587 196.309373 
L 63.321628 228.0631 
" style="fill:none;stroke:#a2da37;stroke-width:0.819237;"/>
    <path clip-path="url(#p1e959cf5fa)" d="M 63.321628 228.0631 
L 146.377603 353.053977 
" style="fill:none;stroke:#a8db34;stroke-width:0.991699;"/>
    <path clip-path="url(#p1e959cf5fa)" d="M 146.377603 353.053977 
L 331.906215 297.472719 
" style="fill:none;stroke:#aadc32;stroke-width:1.550059;"/>
    <path clip-path="url(#p1e959cf5fa)" d="M 331.906215 297.472719 
L 283.81414 190.276114 
" style="fill:none;stroke:#b0dd2f;stroke-width:2.399637;"/>
    <path clip-path="url(#p1e959cf5fa)" d="M 283.81414 190.276114 
L 237.045785 231.350186 
" style="fill:none;stroke:#b5de2b;stroke-width:3.396371;"/>
    <path clip-path="url(#p1e959cf5fa)" d="M 237.045785 231.350186 
L 339.603507 198.295005 
" style="fill:none;stroke:#bade28;stroke-width:4.371246;"/>
    <path clip-path="url(#p1e959cf5fa)" d="M 339.603507 198.295005 
L 254.603207 73.743052 
" style="fill:none;stroke:#c0df25;stroke-width:5.158956;"/>
    <path clip-path="url(#p1e959cf5fa)" d="M 254.603207 73.743052 
L 69.992846 130.774269 
" style="fill:none;stroke:#c5e021;stroke-width:5.62593;"/>
    <path clip-path="url(#p1e959cf5fa)" d="M 69.992846 130.774269 
L 119.54853 237.099329 
" style="fill:none;stroke:#c8e020;stroke-width:5.692983;"/>
    <path clip-path="url(#p1e959cf5fa)" d="M 119.54853 237.099329 
L 164.923361 195.458224 
" style="fill:none;stroke:#cde11d;stroke-width:5.348747;"/>
    <path clip-path="url(#p1e959cf5fa)" d="M 164.923361 195.458224 
L 62.385547 229.81662 
" style="fill:none;stroke:#d2e21b;stroke-width:4.651591;"/>
    <path clip-path="url(#p1e959cf5fa)" d="M 62.385547 229.81662 
L 149.324475 353.910178 
" style="fill:none;stroke:#d8e219;stroke-width:3.719733;"/>
    <path clip-path="url(#p1e959cf5fa)" d="M 149.324475 353.910178 
L 332.993197 295.438475 
" style="fill:none;stroke:#dde318;stroke-width:2.711184;"/>
    <path clip-path="url(#p1e959cf5fa)" d="M 332.993197 295.438475 
L 281.991653 189.998818 
" style="fill:none;stroke:#e2e418;stroke-width:1.796963;"/>
    <path clip-path="url(#p1e959cf5fa)" d="M 281.991653 189.998818 
L 238.020853 232.190215 
" style="fill:none;stroke:#e5e419;stroke-width:1.132093;"/>
    <path clip-path="url(#p1e959cf5fa)" d="M 238.020853 232.190215 
L 340.514047 196.527106 
" style="fill:none;stroke:#eae51a;stroke-width:0.829314;"/>
    <path clip-path="url(#p1e959cf5fa)" d="M 340.514047 196.527106 
L 251.642537 72.91136 
" style="fill:none;stroke:#efe51c;stroke-width:0.939967;"/>
    <path clip-path="url(#p1e959cf5fa)" d="M 251.642537 72.91136 
L 68.938666 132.813837 
" style="fill:none;stroke:#f4e61e;stroke-width:1.445291;"/>
    <path clip-path="url(#p1e959cf5fa)" d="M 68.938666 132.813837 
L 121.368081 237.35443 
" style="fill:none;stroke:#f8e621;stroke-width:2.259597;"/>
    <path clip-path="url(#p1e959cf5fa)" d="M 121.368081 237.35443 
L 163.92466 194.629591 
" style="fill:none;stroke:#fbe723;stroke-width:3.244805;"/>
    <path clip-path="url(#p1e959cf5fa)" d="M 163.92466 194.629591 
L 61.500829 231.598646 
" style="fill:none;stroke:#440154;stroke-width:4.233857;"/>
    <path clip-path="url(#p1e959cf5fa)" d="M 61.500829 231.598646 
L 152.298535 354.717221 
" style="fill:none;stroke:#450457;stroke-width:5.059039;"/>
    <path clip-path="url(#p1e959cf5fa)" d="M 152.298535 354.717221 
L 334.014516 293.393917 
" style="fill:none;stroke:#46075a;stroke-width:5.580428;"/>
    <path clip-path="url(#p1e959cf5fa)" d="M 334.014516 293.393917 
L 280.175454 189.765854 
" style="fill:none;stroke:#460a5d;stroke-width:5.709612;"/>
    <path clip-path="url(#p1e959cf5fa)" d="M 280.175454 189.765854 
L 239.042974 233.007178 
" style="fill:none;stroke:#470d60;stroke-width:5.424687;"/>
    <path clip-path="url(#p1e959cf5fa)" d="M 239.042974 233.007178 
L 341.372665 194.731207 
" style="fill:none;stroke:#470e61;stroke-width:4.773966;"/>
    <path clip-path="url(#p1e959cf5fa)" d="M 341.372665 194.731207 
L 248.655495 72.129099 
" style="fill:none;stroke:#471164;stroke-width:3.86779;"/>
    <path clip-path="url(#p1e959cf5fa)" d="M 248.655495 72.129099 
L 67.950265 134.863052 
" style="fill:none;stroke:#481467;stroke-width:2.859819;"/>
    <path clip-path="url(#p1e959cf5fa)" d="M 67.950265 134.863052 
L 123.180514 237.565318 
" style="fill:none;stroke:#481769;stroke-width:1.920972;"/>
    <path clip-path="url(#p1e959cf5fa)" d="M 123.180514 237.565318 
L 162.879337 193.824571 
" style="fill:none;stroke:#481a6c;stroke-width:1.210447;"/>
    <path clip-path="url(#p1e959cf5fa)" d="M 162.879337 193.824571 
L 60.668584 233.408162 
" style="fill:none;stroke:#481c6e;stroke-width:0.848727;"/>
    <path clip-path="url(#p1e959cf5fa)" d="M 60.668584 233.408162 
L 155.298144 355.47457 
" style="fill:none;stroke:#481d6f;stroke-width:0.897149;"/>
    <path clip-path="url(#p1e959cf5fa)" d="M 155.298144 355.47457 
L 334.96995 291.340379 
" style="fill:none;stroke:#482071;stroke-width:1.3475;"/>
    <path clip-path="url(#p1e959cf5fa)" d="M 334.96995 291.340379 
L 278.367201 189.576976 
" style="fill:none;stroke:#482374;stroke-width:2.123416;"/>
    <path clip-path="url(#p1e959cf5fa)" d="M 278.367201 189.576976 
L 240.111275 233.799985 
" style="fill:none;stroke:#482576;stroke-width:3.093327;"/>
    <path clip-path="url(#p1e959cf5fa)" d="M 240.111275 233.799985 
L 342.178269 192.908335 
" style="fill:none;stroke:#482878;stroke-width:4.092766;"/>
    <path clip-path="url(#p1e959cf5fa)" d="M 342.178269 192.908335 
L 245.643733 71.396788 
" style="fill:none;stroke:#472a7a;stroke-width:4.952261;"/>
    <path clip-path="url(#p1e959cf5fa)" d="M 245.643733 71.396788 
L 67.02784 136.920578 
" style="fill:none;stroke:#472c7a;stroke-width:5.526068;"/>
    <path clip-path="url(#p1e959cf5fa)" d="M 67.02784 136.920578 
L 124.984175 237.732257 
" style="fill:none;stroke:#472e7c;stroke-width:5.716889;"/>
    <path clip-path="url(#p1e959cf5fa)" d="M 124.984175 237.732257 
L 161.788286 193.044243 
" style="fill:none;stroke:#46307e;stroke-width:5.492366;"/>
    <path clip-path="url(#p1e959cf5fa)" d="M 161.788286 193.044243 
L 59.889886 235.244129 
" style="fill:none;stroke:#46337f;stroke-width:4.890571;"/>
    <path clip-path="url(#p1e959cf5fa)" d="M 59.889886 235.244129 
L 158.321642 356.181721 
" style="fill:none;stroke:#453581;stroke-width:4.013549;"/>
    <path clip-path="url(#p1e959cf5fa)" d="M 158.321642 356.181721 
L 335.859327 289.279199 
" style="fill:none;stroke:#453882;stroke-width:3.010015;"/>
    <path clip-path="url(#p1e959cf5fa)" d="M 335.859327 289.279199 
L 276.568541 189.431901 
" style="fill:none;stroke:#443983;stroke-width:2.050137;"/>
    <path clip-path="url(#p1e959cf5fa)" d="M 276.568541 189.431901 
L 241.224841 234.567569 
" style="fill:none;stroke:#443b84;stroke-width:1.296679;"/>
    <path clip-path="url(#p1e959cf5fa)" d="M 241.224841 234.567569 
L 342.929802 191.059539 
" style="fill:none;stroke:#433e85;stroke-width:0.877404;"/>
    <path clip-path="url(#p1e959cf5fa)" d="M 342.929802 191.059539 
L 242.608919 70.714915 
" style="fill:none;stroke:#424086;stroke-width:0.863407;"/>
    <path clip-path="url(#p1e959cf5fa)" d="M 242.608919 70.714915 
L 66.171543 138.985078 
" style="fill:none;stroke:#414287;stroke-width:1.257062;"/>
    <path clip-path="url(#p1e959cf5fa)" d="M 66.171543 138.985078 
L 126.777424 237.855547 
" style="fill:none;stroke:#404588;stroke-width:1.991617;"/>
    <path clip-path="url(#p1e959cf5fa)" d="M 126.777424 237.855547 
L 160.652442 192.289666 
" style="fill:none;stroke:#404688;stroke-width:2.942515;"/>
    <path clip-path="url(#p1e959cf5fa)" d="M 160.652442 192.289666 
L 59.165772 237.105485 
" style="fill:none;stroke:#3f4889;stroke-width:3.948515;"/>
    <path clip-path="url(#p1e959cf5fa)" d="M 59.165772 237.105485 
L 161.367352 356.838204 
" style="fill:none;stroke:#3e4a89;stroke-width:4.839031;"/>
    <path clip-path="url(#p1e959cf5fa)" d="M 161.367352 356.838204 
L 336.68252 287.211715 
" style="fill:none;stroke:#3d4d8a;stroke-width:5.463059;"/>
    <path clip-path="url(#p1e959cf5fa)" d="M 336.68252 287.211715 
L 274.781111 189.330313 
" style="fill:none;stroke:#3c4f8a;stroke-width:5.714786;"/>
    <path clip-path="url(#p1e959cf5fa)" d="M 274.781111 189.330313 
L 242.382721 235.308879 
" style="fill:none;stroke:#3c508b;stroke-width:5.551524;"/>
    <path clip-path="url(#p1e959cf5fa)" d="M 242.382721 235.308879 
L 343.626248 189.185892 
" style="fill:none;stroke:#3b528b;stroke-width:5.00096;"/>
    <path clip-path="url(#p1e959cf5fa)" d="M 343.626248 189.185892 
L 239.552737 70.083932 
" style="fill:none;stroke:#3a548c;stroke-width:4.15645;"/>
    <path clip-path="url(#p1e959cf5fa)" d="M 239.552737 70.083932 
L 65.381473 141.05521 
" style="fill:none;stroke:#39568c;stroke-width:3.161198;"/>
    <path clip-path="url(#p1e959cf5fa)" d="M 65.381473 141.05521 
L 128.558631 237.935522 
" style="fill:none;stroke:#38598c;stroke-width:2.183965;"/>
    <path clip-path="url(#p1e959cf5fa)" d="M 128.558631 237.935522 
L 159.472776 191.56188 
" style="fill:none;stroke:#375b8d;stroke-width:1.390459;"/>
    <path clip-path="url(#p1e959cf5fa)" d="M 159.472776 191.56188 
L 58.497239 238.991148 
" style="fill:none;stroke:#365c8d;stroke-width:0.915234;"/>
    <path clip-path="url(#p1e959cf5fa)" d="M 58.497239 238.991148 
L 164.433581 357.443583 
" style="fill:none;stroke:#355e8d;stroke-width:0.838872;"/>
    <path clip-path="url(#p1e959cf5fa)" d="M 164.433581 357.443583 
L 337.439453 285.13927 
" style="fill:none;stroke:#34608d;stroke-width:1.174323;"/>
    <path clip-path="url(#p1e959cf5fa)" d="M 337.439453 285.13927 
L 273.006531 189.271859 
" style="fill:none;stroke:#33628d;stroke-width:1.864703;"/>
    <path clip-path="url(#p1e959cf5fa)" d="M 273.006531 189.271859 
L 243.583921 236.022887 
" style="fill:none;stroke:#32648e;stroke-width:2.792948;"/>
    <path clip-path="url(#p1e959cf5fa)" d="M 243.583921 236.022887 
L 344.266627 187.28849 
" style="fill:none;stroke:#31668e;stroke-width:3.801656;"/>
    <path clip-path="url(#p1e959cf5fa)" d="M 344.266627 187.28849 
L 236.476888 69.504257 
" style="fill:none;stroke:#31678e;stroke-width:4.719782;"/>
    <path clip-path="url(#p1e959cf5fa)" d="M 236.476888 69.504257 
L 64.657684 143.129633 
" style="fill:none;stroke:#30698e;stroke-width:5.391642;"/>
    <path clip-path="url(#p1e959cf5fa)" d="M 64.657684 143.129633 
L 130.32618 237.97255 
" style="fill:none;stroke:#2f6b8e;stroke-width:5.70331;"/>
    <path clip-path="url(#p1e959cf5fa)" d="M 130.32618 237.97255 
L 158.250299 190.861903 
" style="fill:none;stroke:#2e6d8e;stroke-width:5.601936;"/>
    <path clip-path="url(#p1e959cf5fa)" d="M 158.250299 190.861903 
L 57.885249 240.900012 
" style="fill:none;stroke:#2e6f8e;stroke-width:5.104711;"/>
    <path clip-path="url(#p1e959cf5fa)" d="M 57.885249 240.900012 
L 167.518621 357.997459 
" style="fill:none;stroke:#2d718e;stroke-width:4.295948;"/>
    <path clip-path="url(#p1e959cf5fa)" d="M 167.518621 357.997459 
L 338.130095 283.063205 
" style="fill:none;stroke:#2c718e;stroke-width:3.312787;"/>
    <path clip-path="url(#p1e959cf5fa)" d="M 338.130095 283.063205 
L 271.246412 189.256155 
" style="fill:none;stroke:#2c738e;stroke-width:2.321941;"/>
    <path clip-path="url(#p1e959cf5fa)" d="M 271.246412 189.256155 
L 244.827412 236.708585 
" style="fill:none;stroke:#2b758e;stroke-width:1.491426;"/>
    <path clip-path="url(#p1e959cf5fa)" d="M 244.827412 236.708585 
L 344.849998 185.368446 
" style="fill:none;stroke:#2a778e;stroke-width:0.962071;"/>
    <path clip-path="url(#p1e959cf5fa)" d="M 344.849998 185.368446 
L 233.383087 68.976271 
" style="fill:none;stroke:#29798e;stroke-width:0.823638;"/>
    <path clip-path="url(#p1e959cf5fa)" d="M 233.383087 68.976271 
L 64.000184 145.207005 
" style="fill:none;stroke:#297b8e;stroke-width:1.099599;"/>
    <path clip-path="url(#p1e959cf5fa)" d="M 64.000184 145.207005 
L 132.078472 237.967036 
" style="fill:none;stroke:#287c8e;stroke-width:1.743162;"/>
    <path clip-path="url(#p1e959cf5fa)" d="M 132.078472 237.967036 
L 156.98606 190.19073 
" style="fill:none;stroke:#277e8e;stroke-width:2.645198;"/>
    <path clip-path="url(#p1e959cf5fa)" d="M 156.98606 190.19073 
L 57.330722 242.830951 
" style="fill:none;stroke:#27808e;stroke-width:3.652751;"/>
    <path clip-path="url(#p1e959cf5fa)" d="M 57.330722 242.830951 
L 170.620751 358.499467 
" style="fill:none;stroke:#26828e;stroke-width:4.594972;"/>
    <path clip-path="url(#p1e959cf5fa)" d="M 170.620751 358.499467 
L 338.754465 280.98486 
" style="fill:none;stroke:#25838e;stroke-width:5.312091;"/>
    <path clip-path="url(#p1e959cf5fa)" d="M 338.754465 280.98486 
L 269.502345 189.282779 
" style="fill:none;stroke:#25858e;stroke-width:5.682506;"/>
    <path clip-path="url(#p1e959cf5fa)" d="M 269.502345 189.282779 
L 246.112128 237.364988 
" style="fill:none;stroke:#24868e;stroke-width:5.643408;"/>
    <path clip-path="url(#p1e959cf5fa)" d="M 246.112128 237.364988 
L 345.375461 183.426896 
" style="fill:none;stroke:#23888e;stroke-width:5.201426;"/>
    <path clip-path="url(#p1e959cf5fa)" d="M 345.375461 183.426896 
L 230.273062 68.500324 
" style="fill:none;stroke:#238a8d;stroke-width:4.431506;"/>
    <path clip-path="url(#p1e959cf5fa)" d="M 230.273062 68.500324 
L 63.408929 147.285987 
" style="fill:none;stroke:#228c8d;stroke-width:3.464202;"/>
    <path clip-path="url(#p1e959cf5fa)" d="M 63.408929 147.285987 
L 133.81392 237.919415 
" style="fill:none;stroke:#218e8d;stroke-width:2.463539;"/>
    <path clip-path="url(#p1e959cf5fa)" d="M 133.81392 237.919415 
L 155.681143 189.549336 
" style="fill:none;stroke:#218f8d;stroke-width:1.599195;"/>
    <path clip-path="url(#p1e959cf5fa)" d="M 155.681143 189.549336 
L 56.834539 244.782822 
" style="fill:none;stroke:#21918c;stroke-width:1.017737;"/>
    <path clip-path="url(#p1e959cf5fa)" d="M 56.834539 244.782822 
L 173.738236 358.949276 
" style="fill:none;stroke:#20928c;stroke-width:0.817762;"/>
   </g>
   <g id="text_1">
    <!-- Spirograph Drawer! -->
    <defs>
     <path d="M 53.515625 70.515625 
L 53.515625 60.890625 
Q 47.90625 63.578125 42.921875 64.890625 
Q 37.9375 66.21875 33.296875 66.21875 
Q 25.25 66.21875 20.875 63.09375 
Q 16.5 59.96875 16.5 54.203125 
Q 16.5 49.359375 19.40625 46.890625 
Q 22.3125 44.4375 30.421875 42.921875 
L 36.375 41.703125 
Q 47.40625 39.59375 52.65625 34.296875 
Q 57.90625 29 57.90625 20.125 
Q 57.90625 9.515625 50.796875 4.046875 
Q 43.703125 -1.421875 29.984375 -1.421875 
Q 24.8125 -1.421875 18.96875 -0.25 
Q 13.140625 0.921875 6.890625 3.21875 
L 6.890625 13.375 
Q 12.890625 10.015625 18.65625 8.296875 
Q 24.421875 6.59375 29.984375 6.59375 
Q 38.421875 6.59375 43.015625 9.90625 
Q 47.609375 13.234375 47.609375 19.390625 
Q 47.609375 24.75 44.3125 27.78125 
Q 41.015625 30.8125 33.5 32.328125 
L 27.484375 33.5 
Q 16.453125 35.6875 11.515625 40.375 
Q 6.59375 45.0625 6.59375 53.421875 
Q 6.59375 63.09375 13.40625 68.65625 
Q 20.21875 74.21875 32.171875 74.21875 
Q 37.3125 74.21875 42.625 73.28125 
Q 47.953125 72.359375 53.515625 70.515625 
z
" id="DejaVuSans-53"/>
     <path d="M 18.109375 8.203125 
L 18.109375 -20.796875 
L 9.078125 -20.796875 
L 9.078125 54.6875 
L 18.109375 54.6875 
L 18.109375 46.390625 
Q 20.953125 51.265625 25.265625 53.625 
Q 29.59375 56 35.59375 56 
Q 45.5625 56 51.78125 48.09375 
Q 58.015625 40.1875 58.015625 27.296875 
Q 58.015625 14.40625 51.78125 6.484375 
Q 45.5625 -1.421875 35.59375 -1.421875 
Q 29.59375 -1.421875 25.265625 0.953125 
Q 20.953125 3.328125 18.109375 8.203125 
z
M 48.6875 27.296875 
Q 48.6875 37.203125 44.609375 42.84375 
Q 40.53125 48.484375 33.40625 48.484375 
Q 26.265625 48.484375 22.1875 42.84375 
Q 18.109375 37.203125 18.109375 27.296875 
Q 18.109375 17.390625 22.1875 11.75 
Q 26.265625 6.109375 33.40625 6.109375 
Q 40.53125 6.109375 44.609375 11.75 
Q 48.6875 17.390625 48.6875 27.296875 
z
" id="DejaVuSans-70"/>
     <path d="M 9.421875 54.6875 
L 18.40625 54.6875 
L 18.40625 0 
L 9.421875 0 
z
M 9.421875 75.984375 
L 18.40625 75.984375 
L 18.40625 64.59375 
L 9.421875 64.59375 
z
" id="DejaVuSans-69"/>
     <path d="M 41.109375 46.296875 
Q 39.59375 47.171875 37.8125 47.578125 
Q 36.03125 48 33.890625 48 
Q 26.265625 48 22.1875 43.046875 
Q 18.109375 38.09375 18.109375 28.8125 
L 18.109375 0 
L 9.078125 0 
L 9.078125 54.6875 
L 18.109375 54.6875 
L 18.109375 46.1875 
Q 20.953125 51.171875 25.484375 53.578125 
Q 30.03125 56 36.53125 56 
Q 37.453125 56 38.578125 55.875 
Q 39.703125 55.765625 41.0625 55.515625 
z
" id="DejaVuSans-72"/>
     <path d="M 30.609375 48.390625 
Q 23.390625 48.390625 19.1875 42.75 
Q 14.984375 37.109375 14.984375 27.296875 
Q 14.984375 17.484375 19.15625 11.84375 
Q 23.34375 6.203125 30.609375 6.203125 
Q 37.796875 6.203125 41.984375 11.859375 
Q 46.1875 17.53125 46.1875 27.296875 
Q 46.1875 37.015625 41.984375 42.703125 
Q 37.796875 48.390625 30.609375 48.390625 
z
M 30.609375 56 
Q 42.328125 56 49.015625 48.375 
Q 55.71875 40.765625 55.71875 27.296875 
Q 55.71875 13.875 49.015625 6.21875 
Q 42.328125 -1.421875 30.609375 -1.421875 
Q 18.84375 -1.421875 12.171875 6.21875 
Q 5.515625 13.875 5.515625 27.296875 
Q 5.515625 40.765625 12.171875 48.375 
Q 18.84375 56 30.609375 56 
z
" id="DejaVuSans-6f"/>
     <path d="M 45.40625 27.984375 
Q 45.40625 37.75 41.375 43.109375 
Q 37.359375 48.484375 30.078125 48.484375 
Q 22.859375 48.484375 18.828125 43.109375 
Q 14.796875 37.75 14.796875 27.984375 
Q 14.796875 18.265625 18.828125 12.890625 
Q 22.859375 7.515625 30.078125 7.515625 
Q 37.359375 7.515625 41.375 12.890625 
Q 45.40625 18.265625 45.40625 27.984375 
z
M 54.390625 6.78125 
Q 54.390625 -7.171875 48.1875 -13.984375 
Q 42 -20.796875 29.203125 -20.796875 
Q 24.46875 -20.796875 20.265625 -20.09375 
Q 16.0625 -19.390625 12.109375 -17.921875 
L 12.109375 -9.1875 
Q 16.0625 -11.328125 19.921875 -12.34375 
Q 23.78125 -13.375 27.78125 -13.375 
Q 36.625 -13.375 41.015625 -8.765625 
Q 45.40625 -4.15625 45.40625 5.171875 
L 45.40625 9.625 
Q 42.625 4.78125 38.28125 2.390625 
Q 33.9375 0 27.875 0 
Q 17.828125 0 11.671875 7.65625 
Q 5.515625 15.328125 5.515625 27.984375 
Q 5.515625 40.671875 11.671875 48.328125 
Q 17.828125 56 27.875 56 
Q 33.9375 56 38.28125 53.609375 
Q 42.625 51.21875 45.40625 46.390625 
L 45.40625 54.6875 
L 54.390625 54.6875 
z
" id="DejaVuSans-67"/>
     <path d="M 34.28125 27.484375 
Q 23.390625 27.484375 19.1875 25 
Q 14.984375 22.515625 14.984375 16.5 
Q 14.984375 11.71875 18.140625 8.90625 
Q 21.296875 6.109375 26.703125 6.109375 
Q 34.1875 6.109375 38.703125 11.40625 
Q 43.21875 16.703125 43.21875 25.484375 
L 43.21875 27.484375 
z
M 52.203125 31.203125 
L 52.203125 0 
L 43.21875 0 
L 43.21875 8.296875 
Q 40.140625 3.328125 35.546875 0.953125 
Q 30.953125 -1.421875 24.3125 -1.421875 
Q 15.921875 -1.421875 10.953125 3.296875 
Q 6 8.015625 6 15.921875 
Q 6 25.140625 12.171875 29.828125 
Q 18.359375 34.515625 30.609375 34.515625 
L 43.21875 34.515625 
L 43.21875 35.40625 
Q 43.21875 41.609375 39.140625 45 
Q 35.0625 48.390625 27.6875 48.390625 
Q 23 48.390625 18.546875 47.265625 
Q 14.109375 46.140625 10.015625 43.890625 
L 10.015625 52.203125 
Q 14.9375 54.109375 19.578125 55.046875 
Q 24.21875 56 28.609375 56 
Q 40.484375 56 46.34375 49.84375 
Q 52.203125 43.703125 52.203125 31.203125 
z
" id="DejaVuSans-61"/>
     <path d="M 54.890625 33.015625 
L 54.890625 0 
L 45.90625 0 
L 45.90625 32.71875 
Q 45.90625 40.484375 42.875 44.328125 
Q 39.84375 48.1875 33.796875 48.1875 
Q 26.515625 48.1875 22.3125 43.546875 
Q 18.109375 38.921875 18.109375 30.90625 
L 18.109375 0 
L 9.078125 0 
L 9.078125 75.984375 
L 18.109375 75.984375 
L 18.109375 46.1875 
Q 21.34375 51.125 25.703125 53.5625 
Q 30.078125 56 35.796875 56 
Q 45.21875 56 50.046875 50.171875 
Q 54.890625 44.34375 54.890625 33.015625 
z
" id="DejaVuSans-68"/>
     <path id="DejaVuSans-20"/>
     <path d="M 19.671875 64.796875 
L 19.671875 8.109375 
L 31.59375 8.109375 
Q 46.6875 8.109375 53.6875 14.9375 
Q 60.6875 21.78125 60.6875 36.53125 
Q 60.6875 51.171875 53.6875 57.984375 
Q 46.6875 64.796875 31.59375 64.796875 
z
M 9.8125 72.90625 
L 30.078125 72.90625 
Q 51.265625 72.90625 61.171875 64.09375 
Q 71.09375 55.28125 71.09375 36.53125 
Q 71.09375 17.671875 61.125 8.828125 
Q 51.171875 0 30.078125 0 
L 9.8125 0 
z
" id="DejaVuSans-44"/>
     <path d="M 4.203125 54.6875 
L 13.1875 54.6875 
L 24.421875 12.015625 
L 35.59375 54.6875 
L 46.1875 54.6875 
L 57.421875 12.015625 
L 68.609375 54.6875 
L 77.59375 54.6875 
L 63.28125 0 
L 52.6875 0 
L 40.921875 44.828125 
L 29.109375 0 
L 18.5 0 
z
" id="DejaVuSans-77"/>
     <path d="M 56.203125 29.59375 
L 56.203125 25.203125 
L 14.890625 25.203125 
Q 15.484375 15.921875 20.484375 11.0625 
Q 25.484375 6.203125 34.421875 6.203125 
Q 39.59375 6.203125 44.453125 7.46875 
Q 49.3125 8.734375 54.109375 11.28125 
L 54.109375 2.78125 
Q 49.265625 0.734375 44.1875 -0.34375 
Q 39.109375 -1.421875 33.890625 -1.421875 
Q 20.796875 -1.421875 13.15625 6.1875 
Q 5.515625 13.8125 5.515625 26.8125 
Q 5.515625 40.234375 12.765625 48.109375 
Q 20.015625 56 32.328125 56 
Q 43.359375 56 49.78125 48.890625 
Q 56.203125 41.796875 56.203125 29.59375 
z
M 47.21875 32.234375 
Q 47.125 39.59375 43.09375 43.984375 
Q 39.0625 48.390625 32.421875 48.390625 
Q 24.90625 48.390625 20.390625 44.140625 
Q 15.875 39.890625 15.1875 32.171875 
z
" id="DejaVuSans-65"/>
     <path d="M 15.09375 12.40625 
L 25 12.40625 
L 25 0 
L 15.09375 0 
z
M 15.09375 72.90625 
L 25 72.90625 
L 25 40.921875 
L 24.03125 23.484375 
L 16.109375 23.484375 
L 15.09375 40.921875 
z
" id="DejaVuSans-21"/>
    </defs>
    <g transform="translate(102.56125 56.5536)scale(0.2 -0.2)">
     <use xlink:href="#DejaVuSans-53"/>
     <use x="63.476562" xlink:href="#DejaVuSans-70"/>
     <use x="126.953125" xlink:href="#DejaVuSans-69"/>
     <use x="154.736328" xlink:href="#DejaVuSans-72"/>
     <use x="195.818359" xlink:href="#DejaVuSans-6f"/>
     <use x="257" xlink:href="#DejaVuSans-67"/>
     <use x="320.476562" xlink:href="#DejaVuSans-72"/>
     <use x="361.589844" xlink:href="#DejaVuSans-61"/>
     <use x="422.869141" xlink:href="#DejaVuSans-70"/>
     <use x="486.345703" xlink:href="#DejaVuSans-68"/>
     <use x="549.724609" xlink:href="#DejaVuSans-20"/>
     <use x="581.511719" xlink:href="#DejaVuSans-44"/>
     <use x="658.513672" xlink:href="#DejaVuSans-72"/>
     <use x="699.626953" xlink:href="#DejaVuSans-61"/>
     <use x="760.90625" xlink:href="#DejaVuSans-77"/>
     <use x="842.693359" xlink:href="#DejaVuSans-65"/>
     <use x="904.216797" xlink:href="#DejaVuSans-72"/>
     <use x="945.330078" xlink:href="#DejaVuSans-21"/>
    </g>
   </g>
  </g>
  <g id="axes_2">
   <g id="patch_2">
    <path clip-path="url(#p4030c0668a)" d="M 98.1 495.216 
L 98.1 487.3968 
L 303.047771 487.3968 
L 303.047771 495.216 
z
" style="stroke:#000000;stroke-linejoin:miter;"/>
   </g>
   <g id="line2d_1">
    <path clip-path="url(#p4030c0668a)" d="M 112.198794 495.216 
L 112.198794 487.3968 
" style="fill:none;stroke:#ff0000;stroke-linecap:square;"/>
   </g>
   <g id="text_2">
    <!-- t_max -->
    <defs>
     <path d="M 18.3125 70.21875 
L 18.3125 54.6875 
L 36.8125 54.6875 
L 36.8125 47.703125 
L 18.3125 47.703125 
L 18.3125 18.015625 
Q 18.3125 11.328125 20.140625 9.421875 
Q 21.96875 7.515625 27.59375 7.515625 
L 36.8125 7.515625 
L 36.8125 0 
L 27.59375 0 
Q 17.1875 0 13.234375 3.875 
Q 9.28125 7.765625 9.28125 18.015625 
L 9.28125 47.703125 
L 2.6875 47.703125 
L 2.6875 54.6875 
L 9.28125 54.6875 
L 9.28125 70.21875 
z
" id="DejaVuSans-74"/>
     <path d="M 50.984375 -16.609375 
L 50.984375 -23.578125 
L -0.984375 -23.578125 
L -0.984375 -16.609375 
z
" id="DejaVuSans-5f"/>
     <path d="M 52 44.1875 
Q 55.375 50.25 60.0625 53.125 
Q 64.75 56 71.09375 56 
Q 79.640625 56 84.28125 50.015625 
Q 88.921875 44.046875 88.921875 33.015625 
L 88.921875 0 
L 79.890625 0 
L 79.890625 32.71875 
Q 79.890625 40.578125 77.09375 44.375 
Q 74.3125 48.1875 68.609375 48.1875 
Q 61.625 48.1875 57.5625 43.546875 
Q 53.515625 38.921875 53.515625 30.90625 
L 53.515625 0 
L 44.484375 0 
L 44.484375 32.71875 
Q 44.484375 40.625 41.703125 44.40625 
Q 38.921875 48.1875 33.109375 48.1875 
Q 26.21875 48.1875 22.15625 43.53125 
Q 18.109375 38.875 18.109375 30.90625 
L 18.109375 0 
L 9.078125 0 
L 9.078125 54.6875 
L 18.109375 54.6875 
L 18.109375 46.1875 
Q 21.1875 51.21875 25.484375 53.609375 
Q 29.78125 56 35.6875 56 
Q 41.65625 56 45.828125 52.96875 
Q 50 49.953125 52 44.1875 
z
" id="DejaVuSans-6d"/>
     <path d="M 54.890625 54.6875 
L 35.109375 28.078125 
L 55.90625 0 
L 45.3125 0 
L 29.390625 21.484375 
L 13.484375 0 
L 2.875 0 
L 24.125 28.609375 
L 4.6875 54.6875 
L 15.28125 54.6875 
L 29.78125 35.203125 
L 44.28125 54.6875 
z
" id="DejaVuSans-78"/>
    </defs>
    <g transform="translate(62.290987 493.78765)scale(0.1 -0.1)">
     <use xlink:href="#DejaVuSans-74"/>
     <use x="39.208984" xlink:href="#DejaVuSans-5f"/>
     <use x="89.208984" xlink:href="#DejaVuSans-6d"/>
     <use x="186.621094" xlink:href="#DejaVuSans-61"/>
     <use x="247.900391" xlink:href="#DejaVuSans-78"/>
    </g>
   </g>
   <g id="text_3">
    <!-- 160.9 -->
    <defs>
     <path d="M 12.40625 8.296875 
L 28.515625 8.296875 
L 28.515625 63.921875 
L 10.984375 60.40625 
L 10.984375 69.390625 
L 28.421875 72.90625 
L 38.28125 72.90625 
L 38.28125 8.296875 
L 54.390625 8.296875 
L 54.390625 0 
L 12.40625 0 
z
" id="DejaVuSans-31"/>
     <path d="M 33.015625 40.375 
Q 26.375 40.375 22.484375 35.828125 
Q 18.609375 31.296875 18.609375 23.390625 
Q 18.609375 15.53125 22.484375 10.953125 
Q 26.375 6.390625 33.015625 6.390625 
Q 39.65625 6.390625 43.53125 10.953125 
Q 47.40625 15.53125 47.40625 23.390625 
Q 47.40625 31.296875 43.53125 35.828125 
Q 39.65625 40.375 33.015625 40.375 
z
M 52.59375 71.296875 
L 52.59375 62.3125 
Q 48.875 64.0625 45.09375 64.984375 
Q 41.3125 65.921875 37.59375 65.921875 
Q 27.828125 65.921875 22.671875 59.328125 
Q 17.53125 52.734375 16.796875 39.40625 
Q 19.671875 43.65625 24.015625 45.921875 
Q 28.375 48.1875 33.59375 48.1875 
Q 44.578125 48.1875 50.953125 41.515625 
Q 57.328125 34.859375 57.328125 23.390625 
Q 57.328125 12.15625 50.6875 5.359375 
Q 44.046875 -1.421875 33.015625 -1.421875 
Q 20.359375 -1.421875 13.671875 8.265625 
Q 6.984375 17.96875 6.984375 36.375 
Q 6.984375 53.65625 15.1875 63.9375 
Q 23.390625 74.21875 37.203125 74.21875 
Q 40.921875 74.21875 44.703125 73.484375 
Q 48.484375 72.75 52.59375 71.296875 
z
" id="DejaVuSans-36"/>
     <path d="M 31.78125 66.40625 
Q 24.171875 66.40625 20.328125 58.90625 
Q 16.5 51.421875 16.5 36.375 
Q 16.5 21.390625 20.328125 13.890625 
Q 24.171875 6.390625 31.78125 6.390625 
Q 39.453125 6.390625 43.28125 13.890625 
Q 47.125 21.390625 47.125 36.375 
Q 47.125 51.421875 43.28125 58.90625 
Q 39.453125 66.40625 31.78125 66.40625 
z
M 31.78125 74.21875 
Q 44.046875 74.21875 50.515625 64.515625 
Q 56.984375 54.828125 56.984375 36.375 
Q 56.984375 17.96875 50.515625 8.265625 
Q 44.046875 -1.421875 31.78125 -1.421875 
Q 19.53125 -1.421875 13.0625 8.265625 
Q 6.59375 17.96875 6.59375 36.375 
Q 6.59375 54.828125 13.0625 64.515625 
Q 19.53125 74.21875 31.78125 74.21875 
z
" id="DejaVuSans-30"/>
     <path d="M 10.6875 12.40625 
L 21 12.40625 
L 21 0 
L 10.6875 0 
z
" id="DejaVuSans-2e"/>
     <path d="M 10.984375 1.515625 
L 10.984375 10.5 
Q 14.703125 8.734375 18.5 7.8125 
Q 22.3125 6.890625 25.984375 6.890625 
Q 35.75 6.890625 40.890625 13.453125 
Q 46.046875 20.015625 46.78125 33.40625 
Q 43.953125 29.203125 39.59375 26.953125 
Q 35.25 24.703125 29.984375 24.703125 
Q 19.046875 24.703125 12.671875 31.3125 
Q 6.296875 37.9375 6.296875 49.421875 
Q 6.296875 60.640625 12.9375 67.421875 
Q 19.578125 74.21875 30.609375 74.21875 
Q 43.265625 74.21875 49.921875 64.515625 
Q 56.59375 54.828125 56.59375 36.375 
Q 56.59375 19.140625 48.40625 8.859375 
Q 40.234375 -1.421875 26.421875 -1.421875 
Q 22.703125 -1.421875 18.890625 -0.6875 
Q 15.09375 0.046875 10.984375 1.515625 
z
M 30.609375 32.421875 
Q 37.25 32.421875 41.125 36.953125 
Q 45.015625 41.5 45.015625 49.421875 
Q 45.015625 57.28125 41.125 61.84375 
Q 37.25 66.40625 30.609375 66.40625 
Q 23.96875 66.40625 20.09375 61.84375 
Q 16.21875 57.28125 16.21875 49.421875 
Q 16.21875 41.5 20.09375 36.953125 
Q 23.96875 32.421875 30.609375 32.421875 
z
" id="DejaVuSans-39"/>
     <path d="M 3.609375 54.6875 
L 56 54.6875 
L 56 45.703125 
L 49.125 45.703125 
L 49.125 12.109375 
Q 49.125 8.59375 50.3125 7.046875 
Q 51.515625 5.515625 54.203125 5.515625 
Q 54.9375 5.515625 56 5.640625 
Q 57.078125 5.765625 57.421875 5.8125 
L 57.421875 -0.6875 
Q 55.71875 -1.3125 53.90625 -1.609375 
Q 52.09375 -1.90625 50.296875 -1.90625 
Q 44.4375 -1.90625 42.1875 1.296875 
Q 39.9375 4.5 39.9375 13.09375 
L 39.9375 45.703125 
L 19.78125 45.703125 
L 19.78125 0 
L 10.59375 0 
L 10.59375 45.703125 
L 3.609375 45.703125 
z
" id="DejaVuSans-3c0"/>
    </defs>
    <g transform="translate(358.2612 494.065775)scale(0.1 -0.1)">
     <use xlink:href="#DejaVuSans-31"/>
     <use x="63.623047" xlink:href="#DejaVuSans-36"/>
     <use x="127.246094" xlink:href="#DejaVuSans-30"/>
     <use x="190.869141" xlink:href="#DejaVuSans-2e"/>
     <use x="222.65625" xlink:href="#DejaVuSans-39"/>
     <use x="286.279297" xlink:href="#DejaVuSans-3c0"/>
    </g>
   </g>
  </g>
  <g id="axes_3">
   <g id="patch_3">
    <path clip-path="url(#pa58d250ed8)" d="M 98.1 482.184 
L 98.1 474.3648 
L 291.6 474.3648 
L 291.6 482.184 
z
" style="stroke:#000000;stroke-linejoin:miter;"/>
   </g>
   <g id="line2d_2">
    <path clip-path="url(#pa58d250ed8)" d="M 183.12 482.184 
L 183.12 474.3648 
" style="fill:none;stroke:#ff0000;stroke-linecap:square;"/>
   </g>
   <g id="text_4">
    <!-- t_step -->
    <defs>
     <path d="M 44.28125 53.078125 
L 44.28125 44.578125 
Q 40.484375 46.53125 36.375 47.5 
Q 32.28125 48.484375 27.875 48.484375 
Q 21.1875 48.484375 17.84375 46.4375 
Q 14.5 44.390625 14.5 40.28125 
Q 14.5 37.15625 16.890625 35.375 
Q 19.28125 33.59375 26.515625 31.984375 
L 29.59375 31.296875 
Q 39.15625 29.25 43.1875 25.515625 
Q 47.21875 21.78125 47.21875 15.09375 
Q 47.21875 7.46875 41.1875 3.015625 
Q 35.15625 -1.421875 24.609375 -1.421875 
Q 20.21875 -1.421875 15.453125 -0.5625 
Q 10.6875 0.296875 5.421875 2 
L 5.421875 11.28125 
Q 10.40625 8.6875 15.234375 7.390625 
Q 20.0625 6.109375 24.8125 6.109375 
Q 31.15625 6.109375 34.5625 8.28125 
Q 37.984375 10.453125 37.984375 14.40625 
Q 37.984375 18.0625 35.515625 20.015625 
Q 33.0625 21.96875 24.703125 23.78125 
L 21.578125 24.515625 
Q 13.234375 26.265625 9.515625 29.90625 
Q 5.8125 33.546875 5.8125 39.890625 
Q 5.8125 47.609375 11.28125 51.796875 
Q 16.75 56 26.8125 56 
Q 31.78125 56 36.171875 55.265625 
Q 40.578125 54.546875 44.28125 53.078125 
z
" id="DejaVuSans-73"/>
    </defs>
    <g transform="translate(62.447237 480.75565)scale(0.1 -0.1)">
     <use xlink:href="#DejaVuSans-74"/>
     <use x="39.208984" xlink:href="#DejaVuSans-5f"/>
     <use x="89.208984" xlink:href="#DejaVuSans-73"/>
     <use x="141.308594" xlink:href="#DejaVuSans-74"/>
     <use x="180.517578" xlink:href="#DejaVuSans-65"/>
     <use x="242.041016" xlink:href="#DejaVuSans-70"/>
    </g>
   </g>
   <g id="text_5">
    <!-- 1.89 -->
    <defs>
     <path d="M 31.78125 34.625 
Q 24.75 34.625 20.71875 30.859375 
Q 16.703125 27.09375 16.703125 20.515625 
Q 16.703125 13.921875 20.71875 10.15625 
Q 24.75 6.390625 31.78125 6.390625 
Q 38.8125 6.390625 42.859375 10.171875 
Q 46.921875 13.96875 46.921875 20.515625 
Q 46.921875 27.09375 42.890625 30.859375 
Q 38.875 34.625 31.78125 34.625 
z
M 21.921875 38.8125 
Q 15.578125 40.375 12.03125 44.71875 
Q 8.5 49.078125 8.5 55.328125 
Q 8.5 64.0625 14.71875 69.140625 
Q 20.953125 74.21875 31.78125 74.21875 
Q 42.671875 74.21875 48.875 69.140625 
Q 55.078125 64.0625 55.078125 55.328125 
Q 55.078125 49.078125 51.53125 44.71875 
Q 48 40.375 41.703125 38.8125 
Q 48.828125 37.15625 52.796875 32.3125 
Q 56.78125 27.484375 56.78125 20.515625 
Q 56.78125 9.90625 50.3125 4.234375 
Q 43.84375 -1.421875 31.78125 -1.421875 
Q 19.734375 -1.421875 13.25 4.234375 
Q 6.78125 9.90625 6.78125 20.515625 
Q 6.78125 27.484375 10.78125 32.3125 
Q 14.796875 37.15625 21.921875 38.8125 
z
M 18.3125 54.390625 
Q 18.3125 48.734375 21.84375 45.5625 
Q 25.390625 42.390625 31.78125 42.390625 
Q 38.140625 42.390625 41.71875 45.5625 
Q 45.3125 48.734375 45.3125 54.390625 
Q 45.3125 60.0625 41.71875 63.234375 
Q 38.140625 66.40625 31.78125 66.40625 
Q 25.390625 66.40625 21.84375 63.234375 
Q 18.3125 60.0625 18.3125 54.390625 
z
" id="DejaVuSans-38"/>
    </defs>
    <g transform="translate(358.2612 481.033775)scale(0.1 -0.1)">
     <use xlink:href="#DejaVuSans-31"/>
     <use x="63.623047" xlink:href="#DejaVuSans-2e"/>
     <use x="95.410156" xlink:href="#DejaVuSans-38"/>
     <use x="159.033203" xlink:href="#DejaVuSans-39"/>
    </g>
   </g>
  </g>
  <g id="axes_4">
   <g id="patch_4">
    <path clip-path="url(#pe850d42042)" d="M 98.1 469.152 
L 98.1 461.3328 
L 233.065605 461.3328 
L 233.065605 469.152 
z
" style="stroke:#000000;stroke-linejoin:miter;"/>
   </g>
   <g id="line2d_3">
    <path clip-path="url(#pe850d42042)" d="M 122.452462 469.152 
L 122.452462 461.3328 
" style="fill:none;stroke:#ff0000;stroke-linecap:square;"/>
   </g>
   <g id="text_6">
    <!-- R -->
    <defs>
     <path d="M 44.390625 34.1875 
Q 47.5625 33.109375 50.5625 29.59375 
Q 53.5625 26.078125 56.59375 19.921875 
L 66.609375 0 
L 56 0 
L 46.6875 18.703125 
Q 43.0625 26.03125 39.671875 28.421875 
Q 36.28125 30.8125 30.421875 30.8125 
L 19.671875 30.8125 
L 19.671875 0 
L 9.8125 0 
L 9.8125 72.90625 
L 32.078125 72.90625 
Q 44.578125 72.90625 50.734375 67.671875 
Q 56.890625 62.453125 56.890625 51.90625 
Q 56.890625 45.015625 53.6875 40.46875 
Q 50.484375 35.9375 44.390625 34.1875 
z
M 19.671875 64.796875 
L 19.671875 38.921875 
L 32.078125 38.921875 
Q 39.203125 38.921875 42.84375 42.21875 
Q 46.484375 45.515625 46.484375 51.90625 
Q 46.484375 58.296875 42.84375 61.546875 
Q 39.203125 64.796875 32.078125 64.796875 
z
" id="DejaVuSans-52"/>
    </defs>
    <g transform="translate(86.050363 468.001775)scale(0.1 -0.1)">
     <use xlink:href="#DejaVuSans-52"/>
    </g>
   </g>
   <g id="text_7">
    <!-- 106.30 -->
    <defs>
     <path d="M 40.578125 39.3125 
Q 47.65625 37.796875 51.625 33 
Q 55.609375 28.21875 55.609375 21.1875 
Q 55.609375 10.40625 48.1875 4.484375 
Q 40.765625 -1.421875 27.09375 -1.421875 
Q 22.515625 -1.421875 17.65625 -0.515625 
Q 12.796875 0.390625 7.625 2.203125 
L 7.625 11.71875 
Q 11.71875 9.328125 16.59375 8.109375 
Q 21.484375 6.890625 26.8125 6.890625 
Q 36.078125 6.890625 40.9375 10.546875 
Q 45.796875 14.203125 45.796875 21.1875 
Q 45.796875 27.640625 41.28125 31.265625 
Q 36.765625 34.90625 28.71875 34.90625 
L 20.21875 34.90625 
L 20.21875 43.015625 
L 29.109375 43.015625 
Q 36.375 43.015625 40.234375 45.921875 
Q 44.09375 48.828125 44.09375 54.296875 
Q 44.09375 59.90625 40.109375 62.90625 
Q 36.140625 65.921875 28.71875 65.921875 
Q 24.65625 65.921875 20.015625 65.03125 
Q 15.375 64.15625 9.8125 62.3125 
L 9.8125 71.09375 
Q 15.4375 72.65625 20.34375 73.4375 
Q 25.25 74.21875 29.59375 74.21875 
Q 40.828125 74.21875 47.359375 69.109375 
Q 53.90625 64.015625 53.90625 55.328125 
Q 53.90625 49.265625 50.4375 45.09375 
Q 46.96875 40.921875 40.578125 39.3125 
z
" id="DejaVuSans-33"/>
    </defs>
    <g transform="translate(358.2612 468.001775)scale(0.1 -0.1)">
     <use xlink:href="#DejaVuSans-31"/>
     <use x="63.623047" xlink:href="#DejaVuSans-30"/>
     <use x="127.246094" xlink:href="#DejaVuSans-36"/>
     <use x="190.869141" xlink:href="#DejaVuSans-2e"/>
     <use x="222.65625" xlink:href="#DejaVuSans-33"/>
     <use x="286.279297" xlink:href="#DejaVuSans-30"/>
    </g>
   </g>
  </g>
  <g id="axes_5">
   <g id="patch_5">
    <path clip-path="url(#pd57d7efba7)" d="M 98.1 456.12 
L 98.1 448.3008 
L 301.173248 448.3008 
L 301.173248 456.12 
z
" style="stroke:#000000;stroke-linejoin:miter;"/>
   </g>
   <g id="line2d_4">
    <path clip-path="url(#pd57d7efba7)" d="M 109.635377 456.12 
L 109.635377 448.3008 
" style="fill:none;stroke:#ff0000;stroke-linecap:square;"/>
   </g>
   <g id="text_8">
    <!-- r -->
    <g transform="translate(88.887862 454.969775)scale(0.1 -0.1)">
     <use xlink:href="#DejaVuSans-72"/>
    </g>
   </g>
   <g id="text_9">
    <!-- 159.44 -->
    <defs>
     <path d="M 10.796875 72.90625 
L 49.515625 72.90625 
L 49.515625 64.59375 
L 19.828125 64.59375 
L 19.828125 46.734375 
Q 21.96875 47.46875 24.109375 47.828125 
Q 26.265625 48.1875 28.421875 48.1875 
Q 40.625 48.1875 47.75 41.5 
Q 54.890625 34.8125 54.890625 23.390625 
Q 54.890625 11.625 47.5625 5.09375 
Q 40.234375 -1.421875 26.90625 -1.421875 
Q 22.3125 -1.421875 17.546875 -0.640625 
Q 12.796875 0.140625 7.71875 1.703125 
L 7.71875 11.625 
Q 12.109375 9.234375 16.796875 8.0625 
Q 21.484375 6.890625 26.703125 6.890625 
Q 35.15625 6.890625 40.078125 11.328125 
Q 45.015625 15.765625 45.015625 23.390625 
Q 45.015625 31 40.078125 35.4375 
Q 35.15625 39.890625 26.703125 39.890625 
Q 22.75 39.890625 18.8125 39.015625 
Q 14.890625 38.140625 10.796875 36.28125 
z
" id="DejaVuSans-35"/>
     <path d="M 37.796875 64.3125 
L 12.890625 25.390625 
L 37.796875 25.390625 
z
M 35.203125 72.90625 
L 47.609375 72.90625 
L 47.609375 25.390625 
L 58.015625 25.390625 
L 58.015625 17.1875 
L 47.609375 17.1875 
L 47.609375 0 
L 37.796875 0 
L 37.796875 17.1875 
L 4.890625 17.1875 
L 4.890625 26.703125 
z
" id="DejaVuSans-34"/>
    </defs>
    <g transform="translate(358.2612 454.969775)scale(0.1 -0.1)">
     <use xlink:href="#DejaVuSans-31"/>
     <use x="63.623047" xlink:href="#DejaVuSans-35"/>
     <use x="127.246094" xlink:href="#DejaVuSans-39"/>
     <use x="190.869141" xlink:href="#DejaVuSans-2e"/>
     <use x="222.65625" xlink:href="#DejaVuSans-34"/>
     <use x="286.279297" xlink:href="#DejaVuSans-34"/>
    </g>
   </g>
  </g>
  <g id="axes_6">
   <g id="patch_6">
    <path clip-path="url(#p2c1195cb62)" d="M 98.1 443.088 
L 98.1 435.2688 
L 187.2 435.2688 
L 187.2 443.088 
z
" style="stroke:#000000;stroke-linejoin:miter;"/>
   </g>
   <g id="line2d_5">
    <path clip-path="url(#p2c1195cb62)" d="M 109.635377 443.088 
L 109.635377 435.2688 
" style="fill:none;stroke:#ff0000;stroke-linecap:square;"/>
   </g>
   <g id="text_10">
    <!-- p -->
    <g transform="translate(86.650362 441.937775)scale(0.1 -0.1)">
     <use xlink:href="#DejaVuSans-70"/>
    </g>
   </g>
   <g id="text_11">
    <!-- 70.52 -->
    <defs>
     <path d="M 8.203125 72.90625 
L 55.078125 72.90625 
L 55.078125 68.703125 
L 28.609375 0 
L 18.3125 0 
L 43.21875 64.59375 
L 8.203125 64.59375 
z
" id="DejaVuSans-37"/>
     <path d="M 19.1875 8.296875 
L 53.609375 8.296875 
L 53.609375 0 
L 7.328125 0 
L 7.328125 8.296875 
Q 12.9375 14.109375 22.625 23.890625 
Q 32.328125 33.6875 34.8125 36.53125 
Q 39.546875 41.84375 41.421875 45.53125 
Q 43.3125 49.21875 43.3125 52.78125 
Q 43.3125 58.59375 39.234375 62.25 
Q 35.15625 65.921875 28.609375 65.921875 
Q 23.96875 65.921875 18.8125 64.3125 
Q 13.671875 62.703125 7.8125 59.421875 
L 7.8125 69.390625 
Q 13.765625 71.78125 18.9375 73 
Q 24.125 74.21875 28.421875 74.21875 
Q 39.75 74.21875 46.484375 68.546875 
Q 53.21875 62.890625 53.21875 53.421875 
Q 53.21875 48.921875 51.53125 44.890625 
Q 49.859375 40.875 45.40625 35.40625 
Q 44.1875 33.984375 37.640625 27.21875 
Q 31.109375 20.453125 19.1875 8.296875 
z
" id="DejaVuSans-32"/>
    </defs>
    <g transform="translate(358.2612 441.937775)scale(0.1 -0.1)">
     <use xlink:href="#DejaVuSans-37"/>
     <use x="63.623047" xlink:href="#DejaVuSans-30"/>
     <use x="127.246094" xlink:href="#DejaVuSans-2e"/>
     <use x="159.033203" xlink:href="#DejaVuSans-35"/>
     <use x="222.65625" xlink:href="#DejaVuSans-32"/>
    </g>
   </g>
  </g>
  <g id="axes_7">
   <g id="patch_7">
    <path clip-path="url(#p0c646784ff)" d="M 98.1 430.056 
L 98.1 422.2368 
L 255.6 422.2368 
L 255.6 430.056 
z
" style="stroke:#000000;stroke-linejoin:miter;"/>
   </g>
   <g id="line2d_6">
    <path clip-path="url(#p0c646784ff)" d="M 353.16 430.056 
L 353.16 422.2368 
" style="fill:none;stroke:#ff0000;stroke-linecap:square;"/>
   </g>
   <g id="text_12">
    <!-- colour -->
    <defs>
     <path d="M 48.78125 52.59375 
L 48.78125 44.1875 
Q 44.96875 46.296875 41.140625 47.34375 
Q 37.3125 48.390625 33.40625 48.390625 
Q 24.65625 48.390625 19.8125 42.84375 
Q 14.984375 37.3125 14.984375 27.296875 
Q 14.984375 17.28125 19.8125 11.734375 
Q 24.65625 6.203125 33.40625 6.203125 
Q 37.3125 6.203125 41.140625 7.25 
Q 44.96875 8.296875 48.78125 10.40625 
L 48.78125 2.09375 
Q 45.015625 0.34375 40.984375 -0.53125 
Q 36.96875 -1.421875 32.421875 -1.421875 
Q 20.0625 -1.421875 12.78125 6.34375 
Q 5.515625 14.109375 5.515625 27.296875 
Q 5.515625 40.671875 12.859375 48.328125 
Q 20.21875 56 33.015625 56 
Q 37.15625 56 41.109375 55.140625 
Q 45.0625 54.296875 48.78125 52.59375 
z
" id="DejaVuSans-63"/>
     <path d="M 9.421875 75.984375 
L 18.40625 75.984375 
L 18.40625 0 
L 9.421875 0 
z
" id="DejaVuSans-6c"/>
     <path d="M 8.5 21.578125 
L 8.5 54.6875 
L 17.484375 54.6875 
L 17.484375 21.921875 
Q 17.484375 14.15625 20.5 10.265625 
Q 23.53125 6.390625 29.59375 6.390625 
Q 36.859375 6.390625 41.078125 11.03125 
Q 45.3125 15.671875 45.3125 23.6875 
L 45.3125 54.6875 
L 54.296875 54.6875 
L 54.296875 0 
L 45.3125 0 
L 45.3125 8.40625 
Q 42.046875 3.421875 37.71875 1 
Q 33.40625 -1.421875 27.6875 -1.421875 
Q 18.265625 -1.421875 13.375 4.4375 
Q 8.5 10.296875 8.5 21.578125 
z
M 31.109375 56 
z
" id="DejaVuSans-75"/>
    </defs>
    <g transform="translate(62.0363 428.905775)scale(0.1 -0.1)">
     <use xlink:href="#DejaVuSans-63"/>
     <use x="54.980469" xlink:href="#DejaVuSans-6f"/>
     <use x="116.162109" xlink:href="#DejaVuSans-6c"/>
     <use x="143.945312" xlink:href="#DejaVuSans-6f"/>
     <use x="205.126953" xlink:href="#DejaVuSans-75"/>
     <use x="268.505859" xlink:href="#DejaVuSans-72"/>
    </g>
   </g>
   <g id="text_13">
    <!-- 0.62 -->
    <g transform="translate(358.2612 428.905775)scale(0.1 -0.1)">
     <use xlink:href="#DejaVuSans-30"/>
     <use x="63.623047" xlink:href="#DejaVuSans-2e"/>
     <use x="95.410156" xlink:href="#DejaVuSans-36"/>
     <use x="159.033203" xlink:href="#DejaVuSans-32"/>
    </g>
   </g>
  </g>
  <g id="axes_8">
   <g id="patch_8">
    <path clip-path="url(#p59033213bb)" d="M 98.1 417.024 
L 98.1 409.2048 
L 221.76 409.2048 
L 221.76 417.024 
z
" style="stroke:#000000;stroke-linejoin:miter;"/>
   </g>
   <g id="line2d_7">
    <path clip-path="url(#p59033213bb)" d="M 111.524211 417.024 
L 111.524211 409.2048 
" style="fill:none;stroke:#ff0000;stroke-linecap:square;"/>
   </g>
   <g id="text_14">
    <!-- width_a -->
    <defs>
     <path d="M 45.40625 46.390625 
L 45.40625 75.984375 
L 54.390625 75.984375 
L 54.390625 0 
L 45.40625 0 
L 45.40625 8.203125 
Q 42.578125 3.328125 38.25 0.953125 
Q 33.9375 -1.421875 27.875 -1.421875 
Q 17.96875 -1.421875 11.734375 6.484375 
Q 5.515625 14.40625 5.515625 27.296875 
Q 5.515625 40.1875 11.734375 48.09375 
Q 17.96875 56 27.875 56 
Q 33.9375 56 38.25 53.625 
Q 42.578125 51.265625 45.40625 46.390625 
z
M 14.796875 27.296875 
Q 14.796875 17.390625 18.875 11.75 
Q 22.953125 6.109375 30.078125 6.109375 
Q 37.203125 6.109375 41.296875 11.75 
Q 45.40625 17.390625 45.40625 27.296875 
Q 45.40625 37.203125 41.296875 42.84375 
Q 37.203125 48.484375 30.078125 48.484375 
Q 22.953125 48.484375 18.875 42.84375 
Q 14.796875 37.203125 14.796875 27.296875 
z
" id="DejaVuSans-64"/>
    </defs>
    <g transform="translate(54.308175 415.734712)scale(0.1 -0.1)">
     <use xlink:href="#DejaVuSans-77"/>
     <use x="81.787109" xlink:href="#DejaVuSans-69"/>
     <use x="109.570312" xlink:href="#DejaVuSans-64"/>
     <use x="173.046875" xlink:href="#DejaVuSans-74"/>
     <use x="212.255859" xlink:href="#DejaVuSans-68"/>
     <use x="275.634766" xlink:href="#DejaVuSans-5f"/>
     <use x="325.634766" xlink:href="#DejaVuSans-61"/>
    </g>
   </g>
   <g id="text_15">
    <!-- 5.11 -->
    <g transform="translate(358.2612 415.873775)scale(0.1 -0.1)">
     <use xlink:href="#DejaVuSans-35"/>
     <use x="63.623047" xlink:href="#DejaVuSans-2e"/>
     <use x="95.410156" xlink:href="#DejaVuSans-31"/>
     <use x="159.033203" xlink:href="#DejaVuSans-31"/>
    </g>
   </g>
  </g>
  <g id="axes_9">
   <g id="patch_9">
    <path clip-path="url(#pc26e7c09a9)" d="M 98.1 403.992 
L 98.1 396.1728 
L 160.584076 396.1728 
L 160.584076 403.992 
z
" style="stroke:#000000;stroke-linejoin:miter;"/>
   </g>
   <g id="line2d_8">
    <path clip-path="url(#pc26e7c09a9)" d="M 98.1 403.992 
L 98.1 396.1728 
" style="fill:none;stroke:#ff0000;stroke-linecap:square;"/>
   </g>
   <g id="text_16">
    <!-- width_b -->
    <defs>
     <path d="M 48.6875 27.296875 
Q 48.6875 37.203125 44.609375 42.84375 
Q 40.53125 48.484375 33.40625 48.484375 
Q 26.265625 48.484375 22.1875 42.84375 
Q 18.109375 37.203125 18.109375 27.296875 
Q 18.109375 17.390625 22.1875 11.75 
Q 26.265625 6.109375 33.40625 6.109375 
Q 40.53125 6.109375 44.609375 11.75 
Q 48.6875 17.390625 48.6875 27.296875 
z
M 18.109375 46.390625 
Q 20.953125 51.265625 25.265625 53.625 
Q 29.59375 56 35.59375 56 
Q 45.5625 56 51.78125 48.09375 
Q 58.015625 40.1875 58.015625 27.296875 
Q 58.015625 14.40625 51.78125 6.484375 
Q 45.5625 -1.421875 35.59375 -1.421875 
Q 29.59375 -1.421875 25.265625 0.953125 
Q 20.953125 3.328125 18.109375 8.203125 
L 18.109375 0 
L 9.078125 0 
L 9.078125 75.984375 
L 18.109375 75.984375 
z
" id="DejaVuSans-62"/>
    </defs>
    <g transform="translate(54.087862 402.702712)scale(0.1 -0.1)">
     <use xlink:href="#DejaVuSans-77"/>
     <use x="81.787109" xlink:href="#DejaVuSans-69"/>
     <use x="109.570312" xlink:href="#DejaVuSans-64"/>
     <use x="173.046875" xlink:href="#DejaVuSans-74"/>
     <use x="212.255859" xlink:href="#DejaVuSans-68"/>
     <use x="275.634766" xlink:href="#DejaVuSans-5f"/>
     <use x="325.634766" xlink:href="#DejaVuSans-62"/>
    </g>
   </g>
   <g id="text_17">
    <!-- 2.45 -->
    <g transform="translate(358.2612 402.841775)scale(0.1 -0.1)">
     <use xlink:href="#DejaVuSans-32"/>
     <use x="63.623047" xlink:href="#DejaVuSans-2e"/>
     <use x="95.410156" xlink:href="#DejaVuSans-34"/>
     <use x="159.033203" xlink:href="#DejaVuSans-35"/>
    </g>
   </g>
  </g>
  <g id="axes_10">
   <g id="patch_10">
    <path clip-path="url(#paae95c11e2)" d="M 98.1 390.96 
L 98.1 383.1408 
L 181.44 383.1408 
L 181.44 390.96 
z
" style="stroke:#000000;stroke-linejoin:miter;"/>
   </g>
   <g id="line2d_9">
    <path clip-path="url(#paae95c11e2)" d="M 110.853 390.96 
L 110.853 383.1408 
" style="fill:none;stroke:#ff0000;stroke-linecap:square;"/>
   </g>
   <g id="text_18">
    <!-- width_c -->
    <g transform="translate(54.937863 389.670712)scale(0.1 -0.1)">
     <use xlink:href="#DejaVuSans-77"/>
     <use x="81.787109" xlink:href="#DejaVuSans-69"/>
     <use x="109.570312" xlink:href="#DejaVuSans-64"/>
     <use x="173.046875" xlink:href="#DejaVuSans-74"/>
     <use x="212.255859" xlink:href="#DejaVuSans-68"/>
     <use x="275.634766" xlink:href="#DejaVuSans-5f"/>
     <use x="325.634766" xlink:href="#DejaVuSans-63"/>
    </g>
   </g>
   <g id="text_19">
    <!-- 3.27 -->
    <g transform="translate(358.2612 389.809775)scale(0.1 -0.1)">
     <use xlink:href="#DejaVuSans-33"/>
     <use x="63.623047" xlink:href="#DejaVuSans-2e"/>
     <use x="95.410156" xlink:href="#DejaVuSans-32"/>
     <use x="159.033203" xlink:href="#DejaVuSans-37"/>
    </g>
   </g>
  </g>
  <g id="axes_11">
   <g id="patch_11">
    <path clip-path="url(#p590b3a18e7)" d="M 15.696 462.636 
C 16.216328 462.636 16.715416 462.22406 17.083344 461.490905 
C 17.451271 460.757749 17.658 459.763238 17.658 458.7264 
C 17.658 457.689562 17.451271 456.695051 17.083344 455.961895 
C 16.715416 455.22874 16.216328 454.8168 15.696 454.8168 
C 15.175672 454.8168 14.676584 455.22874 14.308656 455.961895 
C 13.940729 456.695051 13.734 457.689562 13.734 458.7264 
C 13.734 459.763238 13.940729 460.757749 14.308656 461.490905 
C 14.676584 462.22406 15.175672 462.636 15.696 462.636 
z
" style="fill:#ffffff;stroke:#ffffff;stroke-linejoin:miter;"/>
   </g>
   <g id="patch_12">
    <path clip-path="url(#p590b3a18e7)" d="M 15.696 488.7 
C 16.216328 488.7 16.715416 488.28806 17.083344 487.554905 
C 17.451271 486.821749 17.658 485.827238 17.658 484.7904 
C 17.658 483.753562 17.451271 482.759051 17.083344 482.025895 
C 16.715416 481.29274 16.216328 480.8808 15.696 480.8808 
C 15.175672 480.8808 14.676584 481.29274 14.308656 482.025895 
C 13.940729 482.759051 13.734 483.753562 13.734 484.7904 
C 13.734 485.827238 13.940729 486.821749 14.308656 487.554905 
C 14.676584 488.28806 15.175672 488.7 15.696 488.7 
z
" style="stroke:#000000;stroke-linejoin:miter;"/>
   </g>
   <g id="text_20">
    <!-- black -->
    <defs>
     <path d="M 9.078125 75.984375 
L 18.109375 75.984375 
L 18.109375 31.109375 
L 44.921875 54.6875 
L 56.390625 54.6875 
L 27.390625 29.109375 
L 57.625 0 
L 45.90625 0 
L 18.109375 26.703125 
L 18.109375 0 
L 9.078125 0 
z
" id="DejaVuSans-6b"/>
    </defs>
    <g transform="translate(19.62 461.485775)scale(0.1 -0.1)">
     <use xlink:href="#DejaVuSans-62"/>
     <use x="63.476562" xlink:href="#DejaVuSans-6c"/>
     <use x="91.259766" xlink:href="#DejaVuSans-61"/>
     <use x="152.539062" xlink:href="#DejaVuSans-63"/>
     <use x="207.519531" xlink:href="#DejaVuSans-6b"/>
    </g>
   </g>
   <g id="text_21">
    <!-- white -->
    <g transform="translate(19.62 487.549775)scale(0.1 -0.1)">
     <use xlink:href="#DejaVuSans-77"/>
     <use x="81.787109" xlink:href="#DejaVuSans-68"/>
     <use x="145.166016" xlink:href="#DejaVuSans-69"/>
     <use x="172.949219" xlink:href="#DejaVuSans-74"/>
     <use x="212.158203" xlink:href="#DejaVuSans-65"/>
    </g>
   </g>
  </g>
  <g id="axes_12">
   <g id="patch_13">
    <path clip-path="url(#pfafb7dd677)" d="M 15.696 384.444 
C 16.216328 384.444 16.715416 384.03206 17.083344 383.298905 
C 17.451271 382.565749 17.658 381.571238 17.658 380.5344 
C 17.658 379.497562 17.451271 378.503051 17.083344 377.769895 
C 16.715416 377.03674 16.216328 376.6248 15.696 376.6248 
C 15.175672 376.6248 14.676584 377.03674 14.308656 377.769895 
C 13.940729 378.503051 13.734 379.497562 13.734 380.5344 
C 13.734 381.571238 13.940729 382.565749 14.308656 383.298905 
C 14.676584 384.03206 15.175672 384.444 15.696 384.444 
z
" style="fill:#ffffff;stroke:#ffffff;stroke-linejoin:miter;"/>
   </g>
   <g id="patch_14">
    <path clip-path="url(#pfafb7dd677)" d="M 15.696 410.508 
C 16.216328 410.508 16.715416 410.09606 17.083344 409.362905 
C 17.451271 408.629749 17.658 407.635238 17.658 406.5984 
C 17.658 405.561562 17.451271 404.567051 17.083344 403.833895 
C 16.715416 403.10074 16.216328 402.6888 15.696 402.6888 
C 15.175672 402.6888 14.676584 403.10074 14.308656 403.833895 
C 13.940729 404.567051 13.734 405.561562 13.734 406.5984 
C 13.734 407.635238 13.940729 408.629749 14.308656 409.362905 
C 14.676584 410.09606 15.175672 410.508 15.696 410.508 
z
" style="stroke:#000000;stroke-linejoin:miter;"/>
   </g>
   <g id="text_22">
    <!-- solid -->
    <g transform="translate(19.62 383.293775)scale(0.1 -0.1)">
     <use xlink:href="#DejaVuSans-73"/>
     <use x="52.099609" xlink:href="#DejaVuSans-6f"/>
     <use x="113.28125" xlink:href="#DejaVuSans-6c"/>
     <use x="141.064453" xlink:href="#DejaVuSans-69"/>
     <use x="168.847656" xlink:href="#DejaVuSans-64"/>
    </g>
   </g>
   <g id="text_23">
    <!-- variable -->
    <defs>
     <path d="M 2.984375 54.6875 
L 12.5 54.6875 
L 29.59375 8.796875 
L 46.6875 54.6875 
L 56.203125 54.6875 
L 35.6875 0 
L 23.484375 0 
z
" id="DejaVuSans-76"/>
    </defs>
    <g transform="translate(19.62 409.357775)scale(0.1 -0.1)">
     <use xlink:href="#DejaVuSans-76"/>
     <use x="59.179688" xlink:href="#DejaVuSans-61"/>
     <use x="120.458984" xlink:href="#DejaVuSans-72"/>
     <use x="161.572266" xlink:href="#DejaVuSans-69"/>
     <use x="189.355469" xlink:href="#DejaVuSans-61"/>
     <use x="250.634766" xlink:href="#DejaVuSans-62"/>
     <use x="314.111328" xlink:href="#DejaVuSans-6c"/>
     <use x="341.894531" xlink:href="#DejaVuSans-65"/>
    </g>
   </g>
  </g>
 </g>
 <defs>
  <clipPath id="p1e959cf5fa">
   <rect height="302.3424" width="304.11" x="49.05" y="62.5536"/>
  </clipPath>
  <clipPath id="p4030c0668a">
   <rect height="7.8192" width="255.06" x="98.1" y="487.3968"/>
  </clipPath>
  <clipPath id="pa58d250ed8">
   <rect height="7.8192" width="255.06" x="98.1" y="474.3648"/>
  </clipPath>
  <clipPath id="pe850d42042">
   <rect height="7.8192" width="255.06" x="98.1" y="461.3328"/>
  </clipPath>
  <clipPath id="pd57d7efba7">
   <rect height="7.8192" width="255.06" x="98.1" y="448.3008"/>
  </clipPath>
  <clipPath id="p2c1195cb62">
   <rect height="7.8192" width="255.06" x="98.1" y="435.2688"/>
  </clipPath>
  <clipPath id="p0c646784ff">
   <rect height="7.8192" width="255.06" x="98.1" y="422.2368"/>
  </clipPath>
  <clipPath id="p59033213bb">
   <rect height="7.8192" width="255.06" x="98.1" y="409.2048"/>
  </clipPath>
  <clipPath id="pc26e7c09a9">
   <rect height="7.8192" width="255.06" x="98.1" y="396.1728"/>
  </clipPath>
  <clipPath id="paae95c11e2">
   <rect height="7.8192" width="255.06" x="98.1" y="383.1408"/>
  </clipPath>
  <clipPath id="p590b3a18e7">
   <rect height="78.192" width="39.24" x="9.81" y="432.6624"/>
  </clipPath>
  <clipPath id="pfafb7dd677">
   <rect height="78.192" width="39.24" x="9.81" y="354.4704"/>
  </clipPath>
 </defs>
</svg>
